<mxfile host="app.diagrams.net" modified="2022-12-22T09:57:22.486Z" agent="5.0 (X11)" etag="9lvVpQ2HFfQmAL8QPHO2" version="20.7.4" type="github" pages="8">
  <diagram id="15Mt5vYFOoObrEWgtYiu" name="key">
    <mxGraphModel dx="2074" dy="1093" grid="1" gridSize="10" guides="1" tooltips="1" connect="1" arrows="1" fold="1" page="1" pageScale="1" pageWidth="827" pageHeight="1169" math="0" shadow="0">
      <root>
        <mxCell id="m8N8g90QkLfTBGWo5WKB-0" />
        <mxCell id="m8N8g90QkLfTBGWo5WKB-1" parent="m8N8g90QkLfTBGWo5WKB-0" />
        <mxCell id="Tz8hsc7x_sLg0M8agREc-2" value="&lt;font data-font-src=&quot;https://fonts.googleapis.com/css?family=Gloria+Hallelujah&quot; style=&quot;font-size: 18px&quot; face=&quot;Gloria Hallelujah&quot;&gt;Signature&lt;/font&gt;" style="shape=document;whiteSpace=wrap;html=1;boundedLbl=1;shadow=0;sketch=1;fillStyle=cross-hatch;strokeColor=default;strokeWidth=1;fillColor=#000000;" parent="m8N8g90QkLfTBGWo5WKB-1" vertex="1">
          <mxGeometry x="406.47" y="164" width="90" height="42" as="geometry" />
        </mxCell>
        <mxCell id="Tz8hsc7x_sLg0M8agREc-3" value="Aggregate Signature" style="text;html=1;strokeColor=none;fillColor=none;align=left;verticalAlign=middle;whiteSpace=wrap;rounded=0;shadow=0;sketch=1;fillStyle=auto;fontFamily=Gloria Hallelujah;fontSource=https%3A%2F%2Ffonts.googleapis.com%2Fcss%3Ffamily%3DGloria%2BHallelujah;fontSize=20;" parent="m8N8g90QkLfTBGWo5WKB-1" vertex="1">
          <mxGeometry x="526.47" y="170" width="220" height="30" as="geometry" />
        </mxCell>
        <mxCell id="m8N8g90QkLfTBGWo5WKB-23" value="&lt;font data-font-src=&quot;https://fonts.googleapis.com/css?family=Gloria+Hallelujah&quot; style=&quot;font-size: 18px&quot; face=&quot;Gloria Hallelujah&quot;&gt;Signature&lt;/font&gt;" style="shape=document;whiteSpace=wrap;html=1;boundedLbl=1;shadow=0;sketch=1;fillStyle=hachure;strokeColor=default;strokeWidth=1;fillColor=#000000;" parent="m8N8g90QkLfTBGWo5WKB-1" vertex="1">
          <mxGeometry x="406.47" y="104" width="90" height="42" as="geometry" />
        </mxCell>
        <mxCell id="m8N8g90QkLfTBGWo5WKB-24" value="Message signature" style="text;html=1;strokeColor=none;fillColor=none;align=left;verticalAlign=middle;whiteSpace=wrap;rounded=0;shadow=0;sketch=1;fillStyle=auto;fontFamily=Gloria Hallelujah;fontSource=https%3A%2F%2Ffonts.googleapis.com%2Fcss%3Ffamily%3DGloria%2BHallelujah;fontSize=20;" parent="m8N8g90QkLfTBGWo5WKB-1" vertex="1">
          <mxGeometry x="526.47" y="110" width="203.53" height="30" as="geometry" />
        </mxCell>
        <mxCell id="m8N8g90QkLfTBGWo5WKB-16" value="" style="shape=document;whiteSpace=wrap;html=1;boundedLbl=1;shadow=0;sketch=1;fillStyle=auto;strokeColor=default;strokeWidth=1;fillColor=none;" parent="m8N8g90QkLfTBGWo5WKB-1" vertex="1">
          <mxGeometry x="406.47" y="45" width="90" height="40" as="geometry" />
        </mxCell>
        <mxCell id="m8N8g90QkLfTBGWo5WKB-22" value="Message (root)" style="text;html=1;strokeColor=none;fillColor=none;align=left;verticalAlign=middle;whiteSpace=wrap;rounded=0;shadow=0;sketch=1;fillStyle=auto;fontFamily=Gloria Hallelujah;fontSource=https%3A%2F%2Ffonts.googleapis.com%2Fcss%3Ffamily%3DGloria%2BHallelujah;fontSize=20;" parent="m8N8g90QkLfTBGWo5WKB-1" vertex="1">
          <mxGeometry x="526.47" y="50" width="150" height="30" as="geometry" />
        </mxCell>
        <mxCell id="m8N8g90QkLfTBGWo5WKB-11" value="" style="sketch=1;pointerEvents=1;shadow=0;dashed=0;html=1;strokeColor=default;fillColor=none;aspect=fixed;labelPosition=center;verticalLabelPosition=bottom;verticalAlign=top;align=center;outlineConnect=0;shape=stencil(pVfbcpswEP0av+5IWl0fO276H9ShNRMHPEAS8/eVLSR0cVuMZ/x0lj06e5W8w/1wrM71jpFqONeHcYffd4x9Vn1T/TxZmFnL0YESNVDloLZ6rx061m3VjhZ6qydnG8a+e6u/mtdxdmzaY903o7N+OQwZgqJXCF925Js1XH+4P3Rta2U0XTvcsB+Z/VfX17/77qN9TQzefK6uhxYGb37vPq+hXpwGKglQdLKmOUYFhjskPztlOnz0jorOXIqCFs7zwmZMU6BsxrDEJlocOs2uSoH/aHbUGgxuUharYHfU4p1seF9CQIpUGiUGTCYuxh5UxzXwTBwaoDwTF2GLuEgIuyP46czFQlip9x+Ji+rHyiLjo8126ob6v1+lzW1TAaiT5kYhAdWWTMRkPhOMKFAmTQUjEhhNU4FSANFpMlAxwKyHUHGgYo26U9PGgRIR6jstVFw/TkU1A8UTKm7ZtdmiCsGk6eecrkx/qUqmTEqCoVtESRBpfILa7SC3iPL7e6HithAbmIwGYVImtWqXZDzCAKY8kgpg29aSJfONHEZf6LBvwuxbjPt9Q6NTs4a/Yvn0WwhX5asUp0IjLeLs5OUb3WJCluK87yKOg5KlOrJqa2ZVIDroWKoJfNulSjjoPFDCFgxLzAcqpCmqIOwqUmmcwhZabhil5Mh5urQCvYoqj1MIkDLbrnbmdRplBPkgmQ1IZEHayx2yYlJpr/tVQ14s/kjGzK954Lrc4ffSos+mMqapjOlBYfYxmr+3kNDQs15ajE1lUFMZ1PNJS3T42CWGaQ8Fja/ooI2GWzXkTUXXkvc1LPg+83jAvcX/8mq2r+3mdHLP+TsEN9fiPX5D3X+KG/AH);direction=north;fillStyle=hachure;" parent="m8N8g90QkLfTBGWo5WKB-1" vertex="1">
          <mxGeometry x="40" y="40" width="98.04" height="50" as="geometry" />
        </mxCell>
        <mxCell id="m8N8g90QkLfTBGWo5WKB-19" value="Secret Key" style="text;html=1;strokeColor=none;fillColor=none;align=left;verticalAlign=middle;whiteSpace=wrap;rounded=0;shadow=0;sketch=1;fillStyle=auto;fontFamily=Gloria Hallelujah;fontSource=https%3A%2F%2Ffonts.googleapis.com%2Fcss%3Ffamily%3DGloria%2BHallelujah;fontSize=20;" parent="m8N8g90QkLfTBGWo5WKB-1" vertex="1">
          <mxGeometry x="166.47" y="50" width="120" height="30" as="geometry" />
        </mxCell>
        <mxCell id="m8N8g90QkLfTBGWo5WKB-20" value="" style="sketch=1;pointerEvents=1;shadow=0;dashed=0;html=1;strokeColor=default;fillColor=#000000;aspect=fixed;labelPosition=center;verticalLabelPosition=bottom;verticalAlign=top;align=center;outlineConnect=0;shape=stencil(pVfbcpswEP0av+5IWl0fO276H9ShNRMHPEAS8/eVLSR0cVuMZ/x0lj06e5W8w/1wrM71jpFqONeHcYffd4x9Vn1T/TxZmFnL0YESNVDloLZ6rx061m3VjhZ6qydnG8a+e6u/mtdxdmzaY903o7N+OQwZgqJXCF925Js1XH+4P3Rta2U0XTvcsB+Z/VfX17/77qN9TQzefK6uhxYGb37vPq+hXpwGKglQdLKmOUYFhjskPztlOnz0jorOXIqCFs7zwmZMU6BsxrDEJlocOs2uSoH/aHbUGgxuUharYHfU4p1seF9CQIpUGiUGTCYuxh5UxzXwTBwaoDwTF2GLuEgIuyP46czFQlip9x+Ji+rHyiLjo8126ob6v1+lzW1TAaiT5kYhAdWWTMRkPhOMKFAmTQUjEhhNU4FSANFpMlAxwKyHUHGgYo26U9PGgRIR6jstVFw/TkU1A8UTKm7ZtdmiCsGk6eecrkx/qUqmTEqCoVtESRBpfILa7SC3iPL7e6HithAbmIwGYVImtWqXZDzCAKY8kgpg29aSJfONHEZf6LBvwuxbjPt9Q6NTs4a/Yvn0WwhX5asUp0IjLeLs5OUb3WJCluK87yKOg5KlOrJqa2ZVIDroWKoJfNulSjjoPFDCFgxLzAcqpCmqIOwqUmmcwhZabhil5Mh5urQCvYoqj1MIkDLbrnbmdRplBPkgmQ1IZEHayx2yYlJpr/tVQ14s/kjGzK954Lrc4ffSos+mMqapjOlBYfYxmr+3kNDQs15ajE1lUFMZ1PNJS3T42CWGaQ8Fja/ooI2GWzXkTUXXkvc1LPg+83jAvcX/8mq2r+3mdHLP+TsEN9fiPX5D3X+KG/AH);direction=north;fillStyle=hachure;" parent="m8N8g90QkLfTBGWo5WKB-1" vertex="1">
          <mxGeometry x="40" y="100" width="98.04" height="50" as="geometry" />
        </mxCell>
        <mxCell id="m8N8g90QkLfTBGWo5WKB-21" value="Public Key" style="text;html=1;strokeColor=none;fillColor=none;align=left;verticalAlign=middle;whiteSpace=wrap;rounded=0;shadow=0;sketch=1;fillStyle=auto;fontFamily=Gloria Hallelujah;fontSource=https%3A%2F%2Ffonts.googleapis.com%2Fcss%3Ffamily%3DGloria%2BHallelujah;fontSize=20;" parent="m8N8g90QkLfTBGWo5WKB-1" vertex="1">
          <mxGeometry x="166.47" y="110" width="120" height="30" as="geometry" />
        </mxCell>
        <mxCell id="Tz8hsc7x_sLg0M8agREc-0" value="" style="sketch=1;pointerEvents=1;shadow=0;dashed=0;html=1;strokeColor=default;fillColor=#000000;aspect=fixed;labelPosition=center;verticalLabelPosition=bottom;verticalAlign=top;align=center;outlineConnect=0;shape=stencil(pVfbcpswEP0av+5IWl0fO276H9ShNRMHPEAS8/eVLSR0cVuMZ/x0lj06e5W8w/1wrM71jpFqONeHcYffd4x9Vn1T/TxZmFnL0YESNVDloLZ6rx061m3VjhZ6qydnG8a+e6u/mtdxdmzaY903o7N+OQwZgqJXCF925Js1XH+4P3Rta2U0XTvcsB+Z/VfX17/77qN9TQzefK6uhxYGb37vPq+hXpwGKglQdLKmOUYFhjskPztlOnz0jorOXIqCFs7zwmZMU6BsxrDEJlocOs2uSoH/aHbUGgxuUharYHfU4p1seF9CQIpUGiUGTCYuxh5UxzXwTBwaoDwTF2GLuEgIuyP46czFQlip9x+Ji+rHyiLjo8126ob6v1+lzW1TAaiT5kYhAdWWTMRkPhOMKFAmTQUjEhhNU4FSANFpMlAxwKyHUHGgYo26U9PGgRIR6jstVFw/TkU1A8UTKm7ZtdmiCsGk6eecrkx/qUqmTEqCoVtESRBpfILa7SC3iPL7e6HithAbmIwGYVImtWqXZDzCAKY8kgpg29aSJfONHEZf6LBvwuxbjPt9Q6NTs4a/Yvn0WwhX5asUp0IjLeLs5OUb3WJCluK87yKOg5KlOrJqa2ZVIDroWKoJfNulSjjoPFDCFgxLzAcqpCmqIOwqUmmcwhZabhil5Mh5urQCvYoqj1MIkDLbrnbmdRplBPkgmQ1IZEHayx2yYlJpr/tVQ14s/kjGzK954Lrc4ffSos+mMqapjOlBYfYxmr+3kNDQs15ajE1lUFMZ1PNJS3T42CWGaQ8Fja/ooI2GWzXkTUXXkvc1LPg+83jAvcX/8mq2r+3mdHLP+TsEN9fiPX5D3X+KG/AH);direction=north;fillStyle=cross-hatch;" parent="m8N8g90QkLfTBGWo5WKB-1" vertex="1">
          <mxGeometry x="40" y="160" width="98.04" height="50" as="geometry" />
        </mxCell>
        <mxCell id="Tz8hsc7x_sLg0M8agREc-1" value="Aggregate Public Key" style="text;html=1;strokeColor=none;fillColor=none;align=left;verticalAlign=middle;whiteSpace=wrap;rounded=0;shadow=0;sketch=1;fillStyle=auto;fontFamily=Gloria Hallelujah;fontSource=https%3A%2F%2Ffonts.googleapis.com%2Fcss%3Ffamily%3DGloria%2BHallelujah;fontSize=20;" parent="m8N8g90QkLfTBGWo5WKB-1" vertex="1">
          <mxGeometry x="166.47" y="170" width="230" height="30" as="geometry" />
        </mxCell>
      </root>
    </mxGraphModel>
  </diagram>
  <diagram id="WrNMm0lzvySlWsh0EE9z" name="setup">
    <mxGraphModel dx="2074" dy="1093" grid="1" gridSize="10" guides="1" tooltips="1" connect="1" arrows="1" fold="1" page="1" pageScale="1" pageWidth="850" pageHeight="1100" math="0" shadow="0">
      <root>
        <mxCell id="uPciE0t4AosfjtS483er-0" />
        <mxCell id="uPciE0t4AosfjtS483er-1" parent="uPciE0t4AosfjtS483er-0" />
        <mxCell id="OLW7KKnWr4m2rH5J4OHN-0" value="" style="endArrow=classic;html=1;rounded=0;sketch=1;fontSize=20;entryX=0;entryY=0.5;entryDx=0;entryDy=0;exitX=1;exitY=0.5;exitDx=0;exitDy=0;" parent="uPciE0t4AosfjtS483er-1" edge="1">
          <mxGeometry width="50" height="50" relative="1" as="geometry">
            <mxPoint x="328" y="67" as="sourcePoint" />
            <mxPoint x="375" y="67" as="targetPoint" />
          </mxGeometry>
        </mxCell>
        <mxCell id="OLW7KKnWr4m2rH5J4OHN-1" value="" style="sketch=1;pointerEvents=1;shadow=0;dashed=0;html=1;strokeColor=default;fillColor=none;aspect=fixed;labelPosition=center;verticalLabelPosition=bottom;verticalAlign=top;align=center;outlineConnect=0;shape=stencil(pVfbcpswEP0av+5IWl0fO276H9ShNRMHPEAS8/eVLSR0cVuMZ/x0lj06e5W8w/1wrM71jpFqONeHcYffd4x9Vn1T/TxZmFnL0YESNVDloLZ6rx061m3VjhZ6qydnG8a+e6u/mtdxdmzaY903o7N+OQwZgqJXCF925Js1XH+4P3Rta2U0XTvcsB+Z/VfX17/77qN9TQzefK6uhxYGb37vPq+hXpwGKglQdLKmOUYFhjskPztlOnz0jorOXIqCFs7zwmZMU6BsxrDEJlocOs2uSoH/aHbUGgxuUharYHfU4p1seF9CQIpUGiUGTCYuxh5UxzXwTBwaoDwTF2GLuEgIuyP46czFQlip9x+Ji+rHyiLjo8126ob6v1+lzW1TAaiT5kYhAdWWTMRkPhOMKFAmTQUjEhhNU4FSANFpMlAxwKyHUHGgYo26U9PGgRIR6jstVFw/TkU1A8UTKm7ZtdmiCsGk6eecrkx/qUqmTEqCoVtESRBpfILa7SC3iPL7e6HithAbmIwGYVImtWqXZDzCAKY8kgpg29aSJfONHEZf6LBvwuxbjPt9Q6NTs4a/Yvn0WwhX5asUp0IjLeLs5OUb3WJCluK87yKOg5KlOrJqa2ZVIDroWKoJfNulSjjoPFDCFgxLzAcqpCmqIOwqUmmcwhZabhil5Mh5urQCvYoqj1MIkDLbrnbmdRplBPkgmQ1IZEHayx2yYlJpr/tVQ14s/kjGzK954Lrc4ffSos+mMqapjOlBYfYxmr+3kNDQs15ajE1lUFMZ1PNJS3T42CWGaQ8Fja/ooI2GWzXkTUXXkvc1LPg+83jAvcX/8mq2r+3mdHLP+TsEN9fiPX5D3X+KG/AH);direction=north;fillStyle=hachure;" parent="uPciE0t4AosfjtS483er-1" vertex="1">
          <mxGeometry x="208.98" y="42" width="88.24" height="45" as="geometry" />
        </mxCell>
        <mxCell id="OLW7KKnWr4m2rH5J4OHN-2" value="" style="sketch=1;pointerEvents=1;shadow=0;dashed=0;html=1;strokeColor=default;fillColor=#000000;aspect=fixed;labelPosition=center;verticalLabelPosition=bottom;verticalAlign=top;align=center;outlineConnect=0;shape=stencil(pVfbcpswEP0av+5IWl0fO276H9ShNRMHPEAS8/eVLSR0cVuMZ/x0lj06e5W8w/1wrM71jpFqONeHcYffd4x9Vn1T/TxZmFnL0YESNVDloLZ6rx061m3VjhZ6qydnG8a+e6u/mtdxdmzaY903o7N+OQwZgqJXCF925Js1XH+4P3Rta2U0XTvcsB+Z/VfX17/77qN9TQzefK6uhxYGb37vPq+hXpwGKglQdLKmOUYFhjskPztlOnz0jorOXIqCFs7zwmZMU6BsxrDEJlocOs2uSoH/aHbUGgxuUharYHfU4p1seF9CQIpUGiUGTCYuxh5UxzXwTBwaoDwTF2GLuEgIuyP46czFQlip9x+Ji+rHyiLjo8126ob6v1+lzW1TAaiT5kYhAdWWTMRkPhOMKFAmTQUjEhhNU4FSANFpMlAxwKyHUHGgYo26U9PGgRIR6jstVFw/TkU1A8UTKm7ZtdmiCsGk6eecrkx/qUqmTEqCoVtESRBpfILa7SC3iPL7e6HithAbmIwGYVImtWqXZDzCAKY8kgpg29aSJfONHEZf6LBvwuxbjPt9Q6NTs4a/Yvn0WwhX5asUp0IjLeLs5OUb3WJCluK87yKOg5KlOrJqa2ZVIDroWKoJfNulSjjoPFDCFgxLzAcqpCmqIOwqUmmcwhZabhil5Mh5urQCvYoqj1MIkDLbrnbmdRplBPkgmQ1IZEHayx2yYlJpr/tVQ14s/kjGzK954Lrc4ffSos+mMqapjOlBYfYxmr+3kNDQs15ajE1lUFMZ1PNJS3T42CWGaQ8Fja/ooI2GWzXkTUXXkvc1LPg+83jAvcX/8mq2r+3mdHLP+TsEN9fiPX5D3X+KG/AH);direction=north;fillStyle=hachure;" parent="uPciE0t4AosfjtS483er-1" vertex="1">
          <mxGeometry x="400" y="44.5" width="88.24" height="45" as="geometry" />
        </mxCell>
        <mxCell id="OLW7KKnWr4m2rH5J4OHN-3" value="" style="group" parent="uPciE0t4AosfjtS483er-1" vertex="1" connectable="0">
          <mxGeometry x="85" y="35" width="141" height="60" as="geometry" />
        </mxCell>
        <mxCell id="OLW7KKnWr4m2rH5J4OHN-4" value="&lt;div&gt;&lt;font data-font-src=&quot;https://fonts.googleapis.com/css?family=Gloria+Hallelujah&quot; style=&quot;font-size: 20px&quot; face=&quot;Gloria Hallelujah&quot;&gt;Set-up&lt;/font&gt;&lt;/div&gt;" style="text;html=1;strokeColor=none;fillColor=none;align=left;verticalAlign=middle;whiteSpace=wrap;rounded=0;sketch=0;fillStyle=solid;" parent="OLW7KKnWr4m2rH5J4OHN-3" vertex="1">
          <mxGeometry x="1" width="140" height="60" as="geometry" />
        </mxCell>
        <mxCell id="OLW7KKnWr4m2rH5J4OHN-5" value="" style="endArrow=none;html=1;fontFamily=Gloria Hallelujah;fontSource=https%3A%2F%2Ffonts.googleapis.com%2Fcss%3Ffamily%3DGloria%2BHallelujah;fontSize=18;sketch=1;curved=1;" parent="OLW7KKnWr4m2rH5J4OHN-3" edge="1">
          <mxGeometry width="50" height="50" relative="1" as="geometry">
            <mxPoint y="43" as="sourcePoint" />
            <mxPoint x="70" y="41" as="targetPoint" />
          </mxGeometry>
        </mxCell>
      </root>
    </mxGraphModel>
  </diagram>
  <diagram id="r5-z6Tw9KQP0wMWqGEOn" name="signing">
    <mxGraphModel dx="2074" dy="1093" grid="1" gridSize="10" guides="1" tooltips="1" connect="1" arrows="1" fold="1" page="1" pageScale="1" pageWidth="850" pageHeight="1100" math="0" shadow="0">
      <root>
        <mxCell id="RX1QMpTJZ7HhTVuxgZTW-0" />
        <mxCell id="RX1QMpTJZ7HhTVuxgZTW-1" parent="RX1QMpTJZ7HhTVuxgZTW-0" />
        <mxCell id="Ge8llDfad9CYTSuqkLJ7-0" value="&lt;font data-font-src=&quot;https://fonts.googleapis.com/css?family=Gloria+Hallelujah&quot; style=&quot;font-size: 20px&quot; face=&quot;Gloria Hallelujah&quot;&gt;+&lt;br&gt;&lt;/font&gt;" style="text;html=1;strokeColor=none;fillColor=none;align=center;verticalAlign=middle;whiteSpace=wrap;rounded=0;sketch=0;fillStyle=solid;" parent="RX1QMpTJZ7HhTVuxgZTW-1" vertex="1">
          <mxGeometry x="310" y="33" width="40" height="60" as="geometry" />
        </mxCell>
        <mxCell id="Ge8llDfad9CYTSuqkLJ7-1" value="" style="endArrow=classic;html=1;rounded=0;sketch=1;fontSize=20;exitX=1;exitY=0.5;exitDx=0;exitDy=0;" parent="RX1QMpTJZ7HhTVuxgZTW-1" edge="1">
          <mxGeometry width="50" height="50" relative="1" as="geometry">
            <mxPoint x="470" y="61" as="sourcePoint" />
            <mxPoint x="510" y="61" as="targetPoint" />
          </mxGeometry>
        </mxCell>
        <mxCell id="Ge8llDfad9CYTSuqkLJ7-2" value="&lt;font data-font-src=&quot;https://fonts.googleapis.com/css?family=Gloria+Hallelujah&quot; style=&quot;font-size: 18px&quot; face=&quot;Gloria Hallelujah&quot;&gt;Signature&lt;/font&gt;" style="shape=document;whiteSpace=wrap;html=1;boundedLbl=1;shadow=0;sketch=1;fillStyle=hachure;strokeColor=default;strokeWidth=1;fillColor=#000000;" parent="RX1QMpTJZ7HhTVuxgZTW-1" vertex="1">
          <mxGeometry x="530" y="45" width="90" height="42" as="geometry" />
        </mxCell>
        <mxCell id="Ge8llDfad9CYTSuqkLJ7-3" value="" style="shape=document;whiteSpace=wrap;html=1;boundedLbl=1;shadow=0;sketch=1;fillStyle=auto;strokeColor=default;strokeWidth=1;fillColor=none;" parent="RX1QMpTJZ7HhTVuxgZTW-1" vertex="1">
          <mxGeometry x="362" y="46" width="90" height="40" as="geometry" />
        </mxCell>
        <mxCell id="Ge8llDfad9CYTSuqkLJ7-4" value="" style="sketch=1;pointerEvents=1;shadow=0;dashed=0;html=1;strokeColor=default;fillColor=none;aspect=fixed;labelPosition=center;verticalLabelPosition=bottom;verticalAlign=top;align=center;outlineConnect=0;shape=stencil(pVfbcpswEP0av+5IWl0fO276H9ShNRMHPEAS8/eVLSR0cVuMZ/x0lj06e5W8w/1wrM71jpFqONeHcYffd4x9Vn1T/TxZmFnL0YESNVDloLZ6rx061m3VjhZ6qydnG8a+e6u/mtdxdmzaY903o7N+OQwZgqJXCF925Js1XH+4P3Rta2U0XTvcsB+Z/VfX17/77qN9TQzefK6uhxYGb37vPq+hXpwGKglQdLKmOUYFhjskPztlOnz0jorOXIqCFs7zwmZMU6BsxrDEJlocOs2uSoH/aHbUGgxuUharYHfU4p1seF9CQIpUGiUGTCYuxh5UxzXwTBwaoDwTF2GLuEgIuyP46czFQlip9x+Ji+rHyiLjo8126ob6v1+lzW1TAaiT5kYhAdWWTMRkPhOMKFAmTQUjEhhNU4FSANFpMlAxwKyHUHGgYo26U9PGgRIR6jstVFw/TkU1A8UTKm7ZtdmiCsGk6eecrkx/qUqmTEqCoVtESRBpfILa7SC3iPL7e6HithAbmIwGYVImtWqXZDzCAKY8kgpg29aSJfONHEZf6LBvwuxbjPt9Q6NTs4a/Yvn0WwhX5asUp0IjLeLs5OUb3WJCluK87yKOg5KlOrJqa2ZVIDroWKoJfNulSjjoPFDCFgxLzAcqpCmqIOwqUmmcwhZabhil5Mh5urQCvYoqj1MIkDLbrnbmdRplBPkgmQ1IZEHayx2yYlJpr/tVQ14s/kjGzK954Lrc4ffSos+mMqapjOlBYfYxmr+3kNDQs15ajE1lUFMZ1PNJS3T42CWGaQ8Fja/ooI2GWzXkTUXXkvc1LPg+83jAvcX/8mq2r+3mdHLP+TsEN9fiPX5D3X+KG/AH);direction=north;fillStyle=hachure;fontStyle=1" parent="RX1QMpTJZ7HhTVuxgZTW-1" vertex="1">
          <mxGeometry x="208.98" y="44" width="88.24" height="45" as="geometry" />
        </mxCell>
        <mxCell id="Ge8llDfad9CYTSuqkLJ7-5" value="" style="group" parent="RX1QMpTJZ7HhTVuxgZTW-1" vertex="1" connectable="0">
          <mxGeometry x="85" y="37" width="140" height="60" as="geometry" />
        </mxCell>
        <mxCell id="Ge8llDfad9CYTSuqkLJ7-6" value="&lt;div&gt;&lt;font data-font-src=&quot;https://fonts.googleapis.com/css?family=Gloria+Hallelujah&quot; style=&quot;font-size: 20px&quot; face=&quot;Gloria Hallelujah&quot;&gt;Signing&lt;/font&gt;&lt;br&gt;&lt;/div&gt;" style="text;html=1;strokeColor=none;fillColor=none;align=left;verticalAlign=middle;whiteSpace=wrap;rounded=0;sketch=0;fillStyle=solid;" parent="Ge8llDfad9CYTSuqkLJ7-5" vertex="1">
          <mxGeometry width="140" height="60" as="geometry" />
        </mxCell>
        <mxCell id="Ge8llDfad9CYTSuqkLJ7-7" value="" style="endArrow=none;html=1;fontFamily=Gloria Hallelujah;fontSource=https%3A%2F%2Ffonts.googleapis.com%2Fcss%3Ffamily%3DGloria%2BHallelujah;fontSize=18;sketch=1;curved=1;" parent="Ge8llDfad9CYTSuqkLJ7-5" edge="1">
          <mxGeometry width="50" height="50" relative="1" as="geometry">
            <mxPoint x="1" y="46" as="sourcePoint" />
            <mxPoint x="71" y="44" as="targetPoint" />
          </mxGeometry>
        </mxCell>
      </root>
    </mxGraphModel>
  </diagram>
  <diagram id="cGGLjEWmRJazrRlWLNQ0" name="verifying">
    <mxGraphModel dx="2074" dy="1093" grid="1" gridSize="10" guides="1" tooltips="1" connect="1" arrows="1" fold="1" page="1" pageScale="1" pageWidth="850" pageHeight="1100" math="0" shadow="0">
      <root>
        <mxCell id="_7QPxOr0Kh5OOKJlLbip-0" />
        <mxCell id="_7QPxOr0Kh5OOKJlLbip-1" parent="_7QPxOr0Kh5OOKJlLbip-0" />
        <mxCell id="3_klLmUxsHkkALZTiXlr-0" value="&lt;font data-font-src=&quot;https://fonts.googleapis.com/css?family=Gloria+Hallelujah&quot; style=&quot;font-size: 20px&quot; face=&quot;Gloria Hallelujah&quot;&gt;+&lt;br&gt;&lt;/font&gt;" style="text;html=1;strokeColor=none;fillColor=none;align=center;verticalAlign=middle;whiteSpace=wrap;rounded=0;sketch=0;fillStyle=solid;" parent="_7QPxOr0Kh5OOKJlLbip-1" vertex="1">
          <mxGeometry x="291" y="32" width="40" height="60" as="geometry" />
        </mxCell>
        <mxCell id="3_klLmUxsHkkALZTiXlr-1" value="&lt;font data-font-src=&quot;https://fonts.googleapis.com/css?family=Gloria+Hallelujah&quot; style=&quot;font-size: 18px&quot; face=&quot;Gloria Hallelujah&quot;&gt;Signature&lt;/font&gt;" style="shape=document;whiteSpace=wrap;html=1;boundedLbl=1;shadow=0;sketch=1;fillStyle=hachure;strokeColor=default;strokeWidth=1;fillColor=#000000;" parent="_7QPxOr0Kh5OOKJlLbip-1" vertex="1">
          <mxGeometry x="462" y="47" width="90" height="42" as="geometry" />
        </mxCell>
        <mxCell id="3_klLmUxsHkkALZTiXlr-2" value="" style="endArrow=classic;html=1;rounded=0;sketch=1;fontSize=20;exitX=1;exitY=0.5;exitDx=0;exitDy=0;" parent="_7QPxOr0Kh5OOKJlLbip-1" edge="1">
          <mxGeometry width="50" height="50" relative="1" as="geometry">
            <mxPoint x="570" y="67.5" as="sourcePoint" />
            <mxPoint x="610" y="67.5" as="targetPoint" />
          </mxGeometry>
        </mxCell>
        <mxCell id="3_klLmUxsHkkALZTiXlr-4" value="" style="sketch=1;pointerEvents=1;shadow=0;dashed=0;html=1;strokeColor=default;fillColor=#000000;aspect=fixed;labelPosition=center;verticalLabelPosition=bottom;verticalAlign=top;align=center;outlineConnect=0;shape=stencil(pVfbcpswEP0av+5IWl0fO276H9ShNRMHPEAS8/eVLSR0cVuMZ/x0lj06e5W8w/1wrM71jpFqONeHcYffd4x9Vn1T/TxZmFnL0YESNVDloLZ6rx061m3VjhZ6qydnG8a+e6u/mtdxdmzaY903o7N+OQwZgqJXCF925Js1XH+4P3Rta2U0XTvcsB+Z/VfX17/77qN9TQzefK6uhxYGb37vPq+hXpwGKglQdLKmOUYFhjskPztlOnz0jorOXIqCFs7zwmZMU6BsxrDEJlocOs2uSoH/aHbUGgxuUharYHfU4p1seF9CQIpUGiUGTCYuxh5UxzXwTBwaoDwTF2GLuEgIuyP46czFQlip9x+Ji+rHyiLjo8126ob6v1+lzW1TAaiT5kYhAdWWTMRkPhOMKFAmTQUjEhhNU4FSANFpMlAxwKyHUHGgYo26U9PGgRIR6jstVFw/TkU1A8UTKm7ZtdmiCsGk6eecrkx/qUqmTEqCoVtESRBpfILa7SC3iPL7e6HithAbmIwGYVImtWqXZDzCAKY8kgpg29aSJfONHEZf6LBvwuxbjPt9Q6NTs4a/Yvn0WwhX5asUp0IjLeLs5OUb3WJCluK87yKOg5KlOrJqa2ZVIDroWKoJfNulSjjoPFDCFgxLzAcqpCmqIOwqUmmcwhZabhil5Mh5urQCvYoqj1MIkDLbrnbmdRplBPkgmQ1IZEHayx2yYlJpr/tVQ14s/kjGzK954Lrc4ffSos+mMqapjOlBYfYxmr+3kNDQs15ajE1lUFMZ1PNJS3T42CWGaQ8Fja/ooI2GWzXkTUXXkvc1LPg+83jAvcX/8mq2r+3mdHLP+TsEN9fiPX5D3X+KG/AH);direction=north;fillStyle=hachure;" parent="_7QPxOr0Kh5OOKJlLbip-1" vertex="1">
          <mxGeometry x="208.98" y="43.5" width="88.24" height="45" as="geometry" />
        </mxCell>
        <mxCell id="3_klLmUxsHkkALZTiXlr-5" value="" style="group" parent="_7QPxOr0Kh5OOKJlLbip-1" vertex="1" connectable="0">
          <mxGeometry x="85" y="36" width="140" height="60" as="geometry" />
        </mxCell>
        <mxCell id="3_klLmUxsHkkALZTiXlr-6" value="&lt;div&gt;&lt;font data-font-src=&quot;https://fonts.googleapis.com/css?family=Gloria+Hallelujah&quot; style=&quot;font-size: 20px&quot; face=&quot;Gloria Hallelujah&quot;&gt;Verifying&lt;/font&gt;&lt;br&gt;&lt;/div&gt;" style="text;html=1;strokeColor=none;fillColor=none;align=left;verticalAlign=middle;whiteSpace=wrap;rounded=0;sketch=0;fillStyle=solid;" parent="3_klLmUxsHkkALZTiXlr-5" vertex="1">
          <mxGeometry width="140" height="60" as="geometry" />
        </mxCell>
        <mxCell id="3_klLmUxsHkkALZTiXlr-7" value="" style="endArrow=none;html=1;fontFamily=Gloria Hallelujah;fontSource=https%3A%2F%2Ffonts.googleapis.com%2Fcss%3Ffamily%3DGloria%2BHallelujah;fontSize=18;sketch=1;curved=1;" parent="3_klLmUxsHkkALZTiXlr-5" edge="1">
          <mxGeometry width="50" height="50" relative="1" as="geometry">
            <mxPoint y="45.5" as="sourcePoint" />
            <mxPoint x="96" y="43" as="targetPoint" />
          </mxGeometry>
        </mxCell>
        <mxCell id="bgLue7C_26ijuctKGgNg-0" value="" style="shape=document;whiteSpace=wrap;html=1;boundedLbl=1;shadow=0;sketch=1;fillStyle=auto;strokeColor=default;strokeWidth=1;fillColor=none;" parent="_7QPxOr0Kh5OOKJlLbip-1" vertex="1">
          <mxGeometry x="331.47" y="47" width="90" height="40" as="geometry" />
        </mxCell>
        <mxCell id="bgLue7C_26ijuctKGgNg-1" value="&lt;font data-font-src=&quot;https://fonts.googleapis.com/css?family=Gloria+Hallelujah&quot; style=&quot;font-size: 20px&quot; face=&quot;Gloria Hallelujah&quot;&gt;+&lt;br&gt;&lt;/font&gt;" style="text;html=1;strokeColor=none;fillColor=none;align=center;verticalAlign=middle;whiteSpace=wrap;rounded=0;sketch=0;fillStyle=solid;" parent="_7QPxOr0Kh5OOKJlLbip-1" vertex="1">
          <mxGeometry x="422" y="32" width="40" height="60" as="geometry" />
        </mxCell>
        <mxCell id="pu2m3VXrYC9Z83Ss5F6C-0" value="" style="group" vertex="1" connectable="0" parent="_7QPxOr0Kh5OOKJlLbip-1">
          <mxGeometry x="620" y="34.5" width="140" height="63" as="geometry" />
        </mxCell>
        <mxCell id="pu2m3VXrYC9Z83Ss5F6C-1" value="" style="ellipse;whiteSpace=wrap;html=1;shadow=0;sketch=1;fillStyle=solid;fontFamily=Gloria Hallelujah;fontSource=https%3A%2F%2Ffonts.googleapis.com%2Fcss%3Ffamily%3DGloria%2BHallelujah;fontSize=18;strokeColor=default;strokeWidth=1;fillColor=none;" vertex="1" parent="pu2m3VXrYC9Z83Ss5F6C-0">
          <mxGeometry width="140" height="63" as="geometry" />
        </mxCell>
        <mxCell id="pu2m3VXrYC9Z83Ss5F6C-2" value="&lt;font data-font-src=&quot;https://fonts.googleapis.com/css?family=Gloria+Hallelujah&quot; style=&quot;font-size: 20px&quot; face=&quot;Gloria Hallelujah&quot;&gt;True / False&lt;br&gt;&lt;/font&gt;" style="text;html=1;strokeColor=none;fillColor=none;align=center;verticalAlign=middle;whiteSpace=wrap;rounded=0;sketch=0;fillStyle=solid;" vertex="1" parent="pu2m3VXrYC9Z83Ss5F6C-0">
          <mxGeometry y="2" width="140" height="60" as="geometry" />
        </mxCell>
      </root>
    </mxGraphModel>
  </diagram>
  <diagram id="yY8SYCGAzqnOx_5XLZi-" name="pubkey_aggregation">
    <mxGraphModel dx="2074" dy="1093" grid="1" gridSize="10" guides="1" tooltips="1" connect="1" arrows="1" fold="1" page="1" pageScale="1" pageWidth="827" pageHeight="1169" math="0" shadow="0">
      <root>
        <mxCell id="xWlJva-PDoQx-kyWHjbN-0" />
        <mxCell id="xWlJva-PDoQx-kyWHjbN-1" parent="xWlJva-PDoQx-kyWHjbN-0" />
        <mxCell id="DvzK7Ch4ZfCWPorzOanU-9" value="" style="edgeStyle=orthogonalEdgeStyle;orthogonalLoop=1;jettySize=auto;html=1;fontFamily=Gloria Hallelujah;fontSource=https%3A%2F%2Ffonts.googleapis.com%2Fcss%3Ffamily%3DGloria%2BHallelujah;fontSize=20;entryX=0.5;entryY=0.061;entryDx=0;entryDy=0;entryPerimeter=0;sketch=1;curved=1;endArrow=none;endFill=0;" parent="xWlJva-PDoQx-kyWHjbN-1" source="DvzK7Ch4ZfCWPorzOanU-0" target="DvzK7Ch4ZfCWPorzOanU-1" edge="1">
          <mxGeometry relative="1" as="geometry">
            <mxPoint x="410" y="160" as="targetPoint" />
            <Array as="points">
              <mxPoint x="360" y="100" />
              <mxPoint x="360" y="160" />
            </Array>
          </mxGeometry>
        </mxCell>
        <mxCell id="DvzK7Ch4ZfCWPorzOanU-0" value="" style="sketch=1;pointerEvents=1;shadow=0;dashed=0;html=1;strokeColor=default;fillColor=#000000;aspect=fixed;labelPosition=center;verticalLabelPosition=bottom;verticalAlign=top;align=center;outlineConnect=0;shape=stencil(pVfbcpswEP0av+5IWl0fO276H9ShNRMHPEAS8/eVLSR0cVuMZ/x0lj06e5W8w/1wrM71jpFqONeHcYffd4x9Vn1T/TxZmFnL0YESNVDloLZ6rx061m3VjhZ6qydnG8a+e6u/mtdxdmzaY903o7N+OQwZgqJXCF925Js1XH+4P3Rta2U0XTvcsB+Z/VfX17/77qN9TQzefK6uhxYGb37vPq+hXpwGKglQdLKmOUYFhjskPztlOnz0jorOXIqCFs7zwmZMU6BsxrDEJlocOs2uSoH/aHbUGgxuUharYHfU4p1seF9CQIpUGiUGTCYuxh5UxzXwTBwaoDwTF2GLuEgIuyP46czFQlip9x+Ji+rHyiLjo8126ob6v1+lzW1TAaiT5kYhAdWWTMRkPhOMKFAmTQUjEhhNU4FSANFpMlAxwKyHUHGgYo26U9PGgRIR6jstVFw/TkU1A8UTKm7ZtdmiCsGk6eecrkx/qUqmTEqCoVtESRBpfILa7SC3iPL7e6HithAbmIwGYVImtWqXZDzCAKY8kgpg29aSJfONHEZf6LBvwuxbjPt9Q6NTs4a/Yvn0WwhX5asUp0IjLeLs5OUb3WJCluK87yKOg5KlOrJqa2ZVIDroWKoJfNulSjjoPFDCFgxLzAcqpCmqIOwqUmmcwhZabhil5Mh5urQCvYoqj1MIkDLbrnbmdRplBPkgmQ1IZEHayx2yYlJpr/tVQ14s/kjGzK954Lrc4ffSos+mMqapjOlBYfYxmr+3kNDQs15ajE1lUFMZ1PNJS3T42CWGaQ8Fja/ooI2GWzXkTUXXkvc1LPg+83jAvcX/8mq2r+3mdHLP+TsEN9fiPX5D3X+KG/AH);direction=north;fillStyle=hachure;" parent="xWlJva-PDoQx-kyWHjbN-1" vertex="1">
          <mxGeometry x="200" y="75" width="98.04" height="50" as="geometry" />
        </mxCell>
        <mxCell id="DvzK7Ch4ZfCWPorzOanU-1" value="" style="sketch=1;pointerEvents=1;shadow=0;dashed=0;html=1;strokeColor=default;fillColor=#000000;aspect=fixed;labelPosition=center;verticalLabelPosition=bottom;verticalAlign=top;align=center;outlineConnect=0;shape=stencil(pVfbcpswEP0av+5IWl0fO276H9ShNRMHPEAS8/eVLSR0cVuMZ/x0lj06e5W8w/1wrM71jpFqONeHcYffd4x9Vn1T/TxZmFnL0YESNVDloLZ6rx061m3VjhZ6qydnG8a+e6u/mtdxdmzaY903o7N+OQwZgqJXCF925Js1XH+4P3Rta2U0XTvcsB+Z/VfX17/77qN9TQzefK6uhxYGb37vPq+hXpwGKglQdLKmOUYFhjskPztlOnz0jorOXIqCFs7zwmZMU6BsxrDEJlocOs2uSoH/aHbUGgxuUharYHfU4p1seF9CQIpUGiUGTCYuxh5UxzXwTBwaoDwTF2GLuEgIuyP46czFQlip9x+Ji+rHyiLjo8126ob6v1+lzW1TAaiT5kYhAdWWTMRkPhOMKFAmTQUjEhhNU4FSANFpMlAxwKyHUHGgYo26U9PGgRIR6jstVFw/TkU1A8UTKm7ZtdmiCsGk6eecrkx/qUqmTEqCoVtESRBpfILa7SC3iPL7e6HithAbmIwGYVImtWqXZDzCAKY8kgpg29aSJfONHEZf6LBvwuxbjPt9Q6NTs4a/Yvn0WwhX5asUp0IjLeLs5OUb3WJCluK87yKOg5KlOrJqa2ZVIDroWKoJfNulSjjoPFDCFgxLzAcqpCmqIOwqUmmcwhZabhil5Mh5urQCvYoqj1MIkDLbrnbmdRplBPkgmQ1IZEHayx2yYlJpr/tVQ14s/kjGzK954Lrc4ffSos+mMqapjOlBYfYxmr+3kNDQs15ajE1lUFMZ1PNJS3T42CWGaQ8Fja/ooI2GWzXkTUXXkvc1LPg+83jAvcX/8mq2r+3mdHLP+TsEN9fiPX5D3X+KG/AH);direction=north;fillStyle=cross-hatch;" parent="xWlJva-PDoQx-kyWHjbN-1" vertex="1">
          <mxGeometry x="414" y="135" width="98.04" height="50" as="geometry" />
        </mxCell>
        <mxCell id="zkgsWmDAt6PXVVtmm1y8-0" style="edgeStyle=orthogonalEdgeStyle;curved=1;sketch=1;orthogonalLoop=1;jettySize=auto;html=1;entryX=0.5;entryY=0.061;entryDx=0;entryDy=0;entryPerimeter=0;fontFamily=Gloria Hallelujah;fontSource=https%3A%2F%2Ffonts.googleapis.com%2Fcss%3Ffamily%3DGloria%2BHallelujah;fontSize=20;" parent="xWlJva-PDoQx-kyWHjbN-1" source="DvzK7Ch4ZfCWPorzOanU-2" target="DvzK7Ch4ZfCWPorzOanU-1" edge="1">
          <mxGeometry relative="1" as="geometry" />
        </mxCell>
        <mxCell id="DvzK7Ch4ZfCWPorzOanU-2" value="" style="sketch=1;pointerEvents=1;shadow=0;dashed=0;html=1;strokeColor=default;fillColor=#000000;aspect=fixed;labelPosition=center;verticalLabelPosition=bottom;verticalAlign=top;align=center;outlineConnect=0;shape=stencil(pVfbcpswEP0av+5IWl0fO276H9ShNRMHPEAS8/eVLSR0cVuMZ/x0lj06e5W8w/1wrM71jpFqONeHcYffd4x9Vn1T/TxZmFnL0YESNVDloLZ6rx061m3VjhZ6qydnG8a+e6u/mtdxdmzaY903o7N+OQwZgqJXCF925Js1XH+4P3Rta2U0XTvcsB+Z/VfX17/77qN9TQzefK6uhxYGb37vPq+hXpwGKglQdLKmOUYFhjskPztlOnz0jorOXIqCFs7zwmZMU6BsxrDEJlocOs2uSoH/aHbUGgxuUharYHfU4p1seF9CQIpUGiUGTCYuxh5UxzXwTBwaoDwTF2GLuEgIuyP46czFQlip9x+Ji+rHyiLjo8126ob6v1+lzW1TAaiT5kYhAdWWTMRkPhOMKFAmTQUjEhhNU4FSANFpMlAxwKyHUHGgYo26U9PGgRIR6jstVFw/TkU1A8UTKm7ZtdmiCsGk6eecrkx/qUqmTEqCoVtESRBpfILa7SC3iPL7e6HithAbmIwGYVImtWqXZDzCAKY8kgpg29aSJfONHEZf6LBvwuxbjPt9Q6NTs4a/Yvn0WwhX5asUp0IjLeLs5OUb3WJCluK87yKOg5KlOrJqa2ZVIDroWKoJfNulSjjoPFDCFgxLzAcqpCmqIOwqUmmcwhZabhil5Mh5urQCvYoqj1MIkDLbrnbmdRplBPkgmQ1IZEHayx2yYlJpr/tVQ14s/kjGzK954Lrc4ffSos+mMqapjOlBYfYxmr+3kNDQs15ajE1lUFMZ1PNJS3T42CWGaQ8Fja/ooI2GWzXkTUXXkvc1LPg+83jAvcX/8mq2r+3mdHLP+TsEN9fiPX5D3X+KG/AH);direction=north;fillStyle=hachure;" parent="xWlJva-PDoQx-kyWHjbN-1" vertex="1">
          <mxGeometry x="200" y="135" width="98.04" height="50" as="geometry" />
        </mxCell>
        <mxCell id="zkgsWmDAt6PXVVtmm1y8-1" style="edgeStyle=orthogonalEdgeStyle;curved=1;sketch=1;orthogonalLoop=1;jettySize=auto;html=1;fontFamily=Gloria Hallelujah;fontSource=https%3A%2F%2Ffonts.googleapis.com%2Fcss%3Ffamily%3DGloria%2BHallelujah;fontSize=20;endArrow=none;endFill=0;" parent="xWlJva-PDoQx-kyWHjbN-1" source="DvzK7Ch4ZfCWPorzOanU-3" edge="1">
          <mxGeometry relative="1" as="geometry">
            <mxPoint x="420" y="160" as="targetPoint" />
            <Array as="points">
              <mxPoint x="360" y="220" />
              <mxPoint x="360" y="160" />
            </Array>
          </mxGeometry>
        </mxCell>
        <mxCell id="DvzK7Ch4ZfCWPorzOanU-3" value="" style="sketch=1;pointerEvents=1;shadow=0;dashed=0;html=1;strokeColor=default;fillColor=#000000;aspect=fixed;labelPosition=center;verticalLabelPosition=bottom;verticalAlign=top;align=center;outlineConnect=0;shape=stencil(pVfbcpswEP0av+5IWl0fO276H9ShNRMHPEAS8/eVLSR0cVuMZ/x0lj06e5W8w/1wrM71jpFqONeHcYffd4x9Vn1T/TxZmFnL0YESNVDloLZ6rx061m3VjhZ6qydnG8a+e6u/mtdxdmzaY903o7N+OQwZgqJXCF925Js1XH+4P3Rta2U0XTvcsB+Z/VfX17/77qN9TQzefK6uhxYGb37vPq+hXpwGKglQdLKmOUYFhjskPztlOnz0jorOXIqCFs7zwmZMU6BsxrDEJlocOs2uSoH/aHbUGgxuUharYHfU4p1seF9CQIpUGiUGTCYuxh5UxzXwTBwaoDwTF2GLuEgIuyP46czFQlip9x+Ji+rHyiLjo8126ob6v1+lzW1TAaiT5kYhAdWWTMRkPhOMKFAmTQUjEhhNU4FSANFpMlAxwKyHUHGgYo26U9PGgRIR6jstVFw/TkU1A8UTKm7ZtdmiCsGk6eecrkx/qUqmTEqCoVtESRBpfILa7SC3iPL7e6HithAbmIwGYVImtWqXZDzCAKY8kgpg29aSJfONHEZf6LBvwuxbjPt9Q6NTs4a/Yvn0WwhX5asUp0IjLeLs5OUb3WJCluK87yKOg5KlOrJqa2ZVIDroWKoJfNulSjjoPFDCFgxLzAcqpCmqIOwqUmmcwhZabhil5Mh5urQCvYoqj1MIkDLbrnbmdRplBPkgmQ1IZEHayx2yYlJpr/tVQ14s/kjGzK954Lrc4ffSos+mMqapjOlBYfYxmr+3kNDQs15ajE1lUFMZ1PNJS3T42CWGaQ8Fja/ooI2GWzXkTUXXkvc1LPg+83jAvcX/8mq2r+3mdHLP+TsEN9fiPX5D3X+KG/AH);direction=north;fillStyle=hachure;" parent="xWlJva-PDoQx-kyWHjbN-1" vertex="1">
          <mxGeometry x="200" y="195" width="98.04" height="50" as="geometry" />
        </mxCell>
        <mxCell id="DvzK7Ch4ZfCWPorzOanU-4" value="&lt;font data-font-src=&quot;https://fonts.googleapis.com/css?family=Gloria+Hallelujah&quot; style=&quot;font-size: 20px&quot; face=&quot;Gloria Hallelujah&quot;&gt;Key A&lt;/font&gt;" style="text;html=1;strokeColor=none;fillColor=none;align=left;verticalAlign=middle;whiteSpace=wrap;rounded=0;" parent="xWlJva-PDoQx-kyWHjbN-1" vertex="1">
          <mxGeometry x="120" y="85" width="60" height="30" as="geometry" />
        </mxCell>
        <mxCell id="DvzK7Ch4ZfCWPorzOanU-5" value="&lt;font data-font-src=&quot;https://fonts.googleapis.com/css?family=Gloria+Hallelujah&quot; style=&quot;font-size: 20px&quot; face=&quot;Gloria Hallelujah&quot;&gt;Key B&lt;br&gt;&lt;/font&gt;" style="text;html=1;strokeColor=none;fillColor=none;align=left;verticalAlign=middle;whiteSpace=wrap;rounded=0;" parent="xWlJva-PDoQx-kyWHjbN-1" vertex="1">
          <mxGeometry x="120" y="145" width="60" height="30" as="geometry" />
        </mxCell>
        <mxCell id="DvzK7Ch4ZfCWPorzOanU-6" value="&lt;font data-font-src=&quot;https://fonts.googleapis.com/css?family=Gloria+Hallelujah&quot; style=&quot;font-size: 20px&quot; face=&quot;Gloria Hallelujah&quot;&gt;Key C&lt;br&gt;&lt;/font&gt;" style="text;html=1;strokeColor=none;fillColor=none;align=left;verticalAlign=middle;whiteSpace=wrap;rounded=0;" parent="xWlJva-PDoQx-kyWHjbN-1" vertex="1">
          <mxGeometry x="120" y="205" width="60" height="30" as="geometry" />
        </mxCell>
        <mxCell id="zkgsWmDAt6PXVVtmm1y8-2" value="&lt;font data-font-src=&quot;https://fonts.googleapis.com/css?family=Gloria+Hallelujah&quot; style=&quot;font-size: 20px&quot; face=&quot;Gloria Hallelujah&quot;&gt;Key &lt;font style=&quot;font-size: 20px&quot;&gt;A&lt;/font&gt;&lt;/font&gt;&lt;font data-font-src=&quot;https://fonts.googleapis.com/css?family=Gloria+Hallelujah&quot; style=&quot;font-size: 20px&quot; face=&quot;Gloria Hallelujah&quot;&gt; + B + C&lt;/font&gt;" style="text;html=1;strokeColor=none;fillColor=none;align=left;verticalAlign=middle;whiteSpace=wrap;rounded=0;" parent="xWlJva-PDoQx-kyWHjbN-1" vertex="1">
          <mxGeometry x="526" y="145" width="154" height="30" as="geometry" />
        </mxCell>
      </root>
    </mxGraphModel>
  </diagram>
  <diagram name="signature_aggregation" id="x5GEITPHf_13OvCO-ur8">
    <mxGraphModel dx="2074" dy="1093" grid="1" gridSize="10" guides="1" tooltips="1" connect="1" arrows="1" fold="1" page="1" pageScale="1" pageWidth="827" pageHeight="1169" math="0" shadow="0">
      <root>
        <mxCell id="2AO3I6COR371isc3nyaD-0" />
        <mxCell id="2AO3I6COR371isc3nyaD-1" parent="2AO3I6COR371isc3nyaD-0" />
        <mxCell id="2AO3I6COR371isc3nyaD-2" value="" style="edgeStyle=orthogonalEdgeStyle;orthogonalLoop=1;jettySize=auto;html=1;fontFamily=Gloria Hallelujah;fontSource=https%3A%2F%2Ffonts.googleapis.com%2Fcss%3Ffamily%3DGloria%2BHallelujah;fontSize=20;entryX=0.5;entryY=0.061;entryDx=0;entryDy=0;entryPerimeter=0;sketch=1;curved=1;endArrow=none;endFill=0;" parent="2AO3I6COR371isc3nyaD-1" edge="1">
          <mxGeometry relative="1" as="geometry">
            <mxPoint x="298.03999999999996" y="100" as="sourcePoint" />
            <mxPoint x="419.98044000000004" y="160" as="targetPoint" />
            <Array as="points">
              <mxPoint x="360" y="100" />
              <mxPoint x="360" y="160" />
            </Array>
          </mxGeometry>
        </mxCell>
        <mxCell id="2AO3I6COR371isc3nyaD-5" style="edgeStyle=orthogonalEdgeStyle;curved=1;sketch=1;orthogonalLoop=1;jettySize=auto;html=1;entryX=0.5;entryY=0.061;entryDx=0;entryDy=0;entryPerimeter=0;fontFamily=Gloria Hallelujah;fontSource=https%3A%2F%2Ffonts.googleapis.com%2Fcss%3Ffamily%3DGloria%2BHallelujah;fontSize=20;" parent="2AO3I6COR371isc3nyaD-1" edge="1">
          <mxGeometry relative="1" as="geometry">
            <mxPoint x="298.03999999999996" y="160" as="sourcePoint" />
            <mxPoint x="419.98044000000004" y="160" as="targetPoint" />
          </mxGeometry>
        </mxCell>
        <mxCell id="2AO3I6COR371isc3nyaD-7" style="edgeStyle=orthogonalEdgeStyle;curved=1;sketch=1;orthogonalLoop=1;jettySize=auto;html=1;fontFamily=Gloria Hallelujah;fontSource=https%3A%2F%2Ffonts.googleapis.com%2Fcss%3Ffamily%3DGloria%2BHallelujah;fontSize=20;endArrow=none;endFill=0;" parent="2AO3I6COR371isc3nyaD-1" edge="1">
          <mxGeometry relative="1" as="geometry">
            <mxPoint x="420" y="160" as="targetPoint" />
            <mxPoint x="298.03999999999996" y="220" as="sourcePoint" />
            <Array as="points">
              <mxPoint x="360" y="220" />
              <mxPoint x="360" y="160" />
            </Array>
          </mxGeometry>
        </mxCell>
        <mxCell id="2AO3I6COR371isc3nyaD-9" value="&lt;font data-font-src=&quot;https://fonts.googleapis.com/css?family=Gloria+Hallelujah&quot; style=&quot;font-size: 20px&quot; face=&quot;Gloria Hallelujah&quot;&gt;Sig. A&lt;/font&gt;" style="text;html=1;strokeColor=none;fillColor=none;align=left;verticalAlign=middle;whiteSpace=wrap;rounded=0;" parent="2AO3I6COR371isc3nyaD-1" vertex="1">
          <mxGeometry x="121" y="85" width="69" height="30" as="geometry" />
        </mxCell>
        <mxCell id="2AO3I6COR371isc3nyaD-12" value="&lt;font data-font-src=&quot;https://fonts.googleapis.com/css?family=Gloria+Hallelujah&quot; style=&quot;font-size: 20px&quot; face=&quot;Gloria Hallelujah&quot;&gt;Sig. &lt;font style=&quot;font-size: 20px&quot;&gt;A&lt;/font&gt;&lt;/font&gt;&lt;font data-font-src=&quot;https://fonts.googleapis.com/css?family=Gloria+Hallelujah&quot; style=&quot;font-size: 20px&quot; face=&quot;Gloria Hallelujah&quot;&gt; + B + C&lt;/font&gt;" style="text;html=1;strokeColor=none;fillColor=none;align=left;verticalAlign=middle;whiteSpace=wrap;rounded=0;" parent="2AO3I6COR371isc3nyaD-1" vertex="1">
          <mxGeometry x="526" y="145" width="154" height="30" as="geometry" />
        </mxCell>
        <mxCell id="2AO3I6COR371isc3nyaD-13" value="&lt;font data-font-src=&quot;https://fonts.googleapis.com/css?family=Gloria+Hallelujah&quot; style=&quot;font-size: 20px&quot; face=&quot;Gloria Hallelujah&quot;&gt;Sig. B&lt;br&gt;&lt;/font&gt;" style="text;html=1;strokeColor=none;fillColor=none;align=left;verticalAlign=middle;whiteSpace=wrap;rounded=0;" parent="2AO3I6COR371isc3nyaD-1" vertex="1">
          <mxGeometry x="121" y="145" width="69" height="30" as="geometry" />
        </mxCell>
        <mxCell id="2AO3I6COR371isc3nyaD-14" value="&lt;font data-font-src=&quot;https://fonts.googleapis.com/css?family=Gloria+Hallelujah&quot; style=&quot;font-size: 20px&quot; face=&quot;Gloria Hallelujah&quot;&gt;Sig. C&lt;br&gt;&lt;/font&gt;" style="text;html=1;strokeColor=none;fillColor=none;align=left;verticalAlign=middle;whiteSpace=wrap;rounded=0;" parent="2AO3I6COR371isc3nyaD-1" vertex="1">
          <mxGeometry x="121" y="205" width="69" height="30" as="geometry" />
        </mxCell>
        <mxCell id="iaim3j9BlEx8rRgaQWx0-0" value="&lt;font data-font-src=&quot;https://fonts.googleapis.com/css?family=Gloria+Hallelujah&quot; style=&quot;font-size: 18px&quot; face=&quot;Gloria Hallelujah&quot;&gt;Signature&lt;/font&gt;" style="shape=document;whiteSpace=wrap;html=1;boundedLbl=1;shadow=0;sketch=1;fillStyle=hachure;strokeColor=default;strokeWidth=1;fillColor=#000000;" parent="2AO3I6COR371isc3nyaD-1" vertex="1">
          <mxGeometry x="208.04000000000002" y="81" width="90" height="42" as="geometry" />
        </mxCell>
        <mxCell id="Py-g3W7Ivp5QcviDznPw-0" value="&lt;font data-font-src=&quot;https://fonts.googleapis.com/css?family=Gloria+Hallelujah&quot; style=&quot;font-size: 18px&quot; face=&quot;Gloria Hallelujah&quot;&gt;Signature&lt;/font&gt;" style="shape=document;whiteSpace=wrap;html=1;boundedLbl=1;shadow=0;sketch=1;fillStyle=hachure;strokeColor=default;strokeWidth=1;fillColor=#000000;" parent="2AO3I6COR371isc3nyaD-1" vertex="1">
          <mxGeometry x="208.04000000000002" y="142" width="90" height="42" as="geometry" />
        </mxCell>
        <mxCell id="Py-g3W7Ivp5QcviDznPw-1" value="&lt;font data-font-src=&quot;https://fonts.googleapis.com/css?family=Gloria+Hallelujah&quot; style=&quot;font-size: 18px&quot; face=&quot;Gloria Hallelujah&quot;&gt;Signature&lt;/font&gt;" style="shape=document;whiteSpace=wrap;html=1;boundedLbl=1;shadow=0;sketch=1;fillStyle=hachure;strokeColor=default;strokeWidth=1;fillColor=#000000;" parent="2AO3I6COR371isc3nyaD-1" vertex="1">
          <mxGeometry x="208.04000000000002" y="201" width="90" height="42" as="geometry" />
        </mxCell>
        <mxCell id="Py-g3W7Ivp5QcviDznPw-2" value="&lt;font data-font-src=&quot;https://fonts.googleapis.com/css?family=Gloria+Hallelujah&quot; style=&quot;font-size: 18px&quot; face=&quot;Gloria Hallelujah&quot;&gt;Signature&lt;/font&gt;" style="shape=document;whiteSpace=wrap;html=1;boundedLbl=1;shadow=0;sketch=1;fillStyle=cross-hatch;strokeColor=default;strokeWidth=1;fillColor=#000000;" parent="2AO3I6COR371isc3nyaD-1" vertex="1">
          <mxGeometry x="420" y="139" width="90" height="42" as="geometry" />
        </mxCell>
      </root>
    </mxGraphModel>
  </diagram>
  <diagram id="8KnR6obNTg4fQtXNxiQA" name="aggregate_verify">
    <mxGraphModel dx="2074" dy="1093" grid="1" gridSize="10" guides="1" tooltips="1" connect="1" arrows="1" fold="1" page="1" pageScale="1" pageWidth="827" pageHeight="1169" math="0" shadow="0">
      <root>
        <mxCell id="4Vg86zo5LVweq1HbYES3-0" />
        <mxCell id="4Vg86zo5LVweq1HbYES3-1" parent="4Vg86zo5LVweq1HbYES3-0" />
        <mxCell id="84fXhLiYRHBrHh_zQuxM-0" value="&lt;font data-font-src=&quot;https://fonts.googleapis.com/css?family=Gloria+Hallelujah&quot; style=&quot;font-size: 20px&quot; face=&quot;Gloria Hallelujah&quot;&gt;+&lt;br&gt;&lt;/font&gt;" style="text;html=1;strokeColor=none;fillColor=none;align=center;verticalAlign=middle;whiteSpace=wrap;rounded=0;sketch=0;fillStyle=solid;" parent="4Vg86zo5LVweq1HbYES3-1" vertex="1">
          <mxGeometry x="231" y="31" width="40" height="60" as="geometry" />
        </mxCell>
        <mxCell id="84fXhLiYRHBrHh_zQuxM-1" value="&lt;font data-font-src=&quot;https://fonts.googleapis.com/css?family=Gloria+Hallelujah&quot; style=&quot;font-size: 18px&quot; face=&quot;Gloria Hallelujah&quot;&gt;Signature&lt;/font&gt;" style="shape=document;whiteSpace=wrap;html=1;boundedLbl=1;shadow=0;sketch=1;fillStyle=cross-hatch;strokeColor=default;strokeWidth=1;fillColor=#000000;" parent="4Vg86zo5LVweq1HbYES3-1" vertex="1">
          <mxGeometry x="402" y="46" width="90" height="42" as="geometry" />
        </mxCell>
        <mxCell id="84fXhLiYRHBrHh_zQuxM-2" value="" style="endArrow=classic;html=1;rounded=0;sketch=1;fontSize=20;exitX=1;exitY=0.5;exitDx=0;exitDy=0;" parent="4Vg86zo5LVweq1HbYES3-1" edge="1">
          <mxGeometry width="50" height="50" relative="1" as="geometry">
            <mxPoint x="510" y="66.5" as="sourcePoint" />
            <mxPoint x="550" y="66.5" as="targetPoint" />
          </mxGeometry>
        </mxCell>
        <mxCell id="84fXhLiYRHBrHh_zQuxM-4" value="" style="sketch=1;pointerEvents=1;shadow=0;dashed=0;html=1;strokeColor=default;fillColor=#000000;aspect=fixed;labelPosition=center;verticalLabelPosition=bottom;verticalAlign=top;align=center;outlineConnect=0;shape=stencil(pVfbcpswEP0av+5IWl0fO276H9ShNRMHPEAS8/eVLSR0cVuMZ/x0lj06e5W8w/1wrM71jpFqONeHcYffd4x9Vn1T/TxZmFnL0YESNVDloLZ6rx061m3VjhZ6qydnG8a+e6u/mtdxdmzaY903o7N+OQwZgqJXCF925Js1XH+4P3Rta2U0XTvcsB+Z/VfX17/77qN9TQzefK6uhxYGb37vPq+hXpwGKglQdLKmOUYFhjskPztlOnz0jorOXIqCFs7zwmZMU6BsxrDEJlocOs2uSoH/aHbUGgxuUharYHfU4p1seF9CQIpUGiUGTCYuxh5UxzXwTBwaoDwTF2GLuEgIuyP46czFQlip9x+Ji+rHyiLjo8126ob6v1+lzW1TAaiT5kYhAdWWTMRkPhOMKFAmTQUjEhhNU4FSANFpMlAxwKyHUHGgYo26U9PGgRIR6jstVFw/TkU1A8UTKm7ZtdmiCsGk6eecrkx/qUqmTEqCoVtESRBpfILa7SC3iPL7e6HithAbmIwGYVImtWqXZDzCAKY8kgpg29aSJfONHEZf6LBvwuxbjPt9Q6NTs4a/Yvn0WwhX5asUp0IjLeLs5OUb3WJCluK87yKOg5KlOrJqa2ZVIDroWKoJfNulSjjoPFDCFgxLzAcqpCmqIOwqUmmcwhZabhil5Mh5urQCvYoqj1MIkDLbrnbmdRplBPkgmQ1IZEHayx2yYlJpr/tVQ14s/kjGzK954Lrc4ffSos+mMqapjOlBYfYxmr+3kNDQs15ajE1lUFMZ1PNJS3T42CWGaQ8Fja/ooI2GWzXkTUXXkvc1LPg+83jAvcX/8mq2r+3mdHLP+TsEN9fiPX5D3X+KG/AH);direction=north;fillStyle=cross-hatch;" parent="4Vg86zo5LVweq1HbYES3-1" vertex="1">
          <mxGeometry x="148.98" y="42.5" width="88.24" height="45" as="geometry" />
        </mxCell>
        <mxCell id="84fXhLiYRHBrHh_zQuxM-6" value="" style="shape=document;whiteSpace=wrap;html=1;boundedLbl=1;shadow=0;sketch=1;fillStyle=auto;strokeColor=default;strokeWidth=1;fillColor=none;" parent="4Vg86zo5LVweq1HbYES3-1" vertex="1">
          <mxGeometry x="271.47" y="46" width="90" height="40" as="geometry" />
        </mxCell>
        <mxCell id="84fXhLiYRHBrHh_zQuxM-7" value="&lt;font data-font-src=&quot;https://fonts.googleapis.com/css?family=Gloria+Hallelujah&quot; style=&quot;font-size: 20px&quot; face=&quot;Gloria Hallelujah&quot;&gt;+&lt;br&gt;&lt;/font&gt;" style="text;html=1;strokeColor=none;fillColor=none;align=center;verticalAlign=middle;whiteSpace=wrap;rounded=0;sketch=0;fillStyle=solid;" parent="4Vg86zo5LVweq1HbYES3-1" vertex="1">
          <mxGeometry x="362" y="31" width="40" height="60" as="geometry" />
        </mxCell>
        <mxCell id="DzyOpSixyx1FY6fsvI3P-0" value="" style="group" vertex="1" connectable="0" parent="4Vg86zo5LVweq1HbYES3-1">
          <mxGeometry x="562" y="35.5" width="140" height="63" as="geometry" />
        </mxCell>
        <mxCell id="DzyOpSixyx1FY6fsvI3P-1" value="" style="ellipse;whiteSpace=wrap;html=1;shadow=0;sketch=1;fillStyle=solid;fontFamily=Gloria Hallelujah;fontSource=https%3A%2F%2Ffonts.googleapis.com%2Fcss%3Ffamily%3DGloria%2BHallelujah;fontSize=18;strokeColor=default;strokeWidth=1;fillColor=none;" vertex="1" parent="DzyOpSixyx1FY6fsvI3P-0">
          <mxGeometry width="140" height="63" as="geometry" />
        </mxCell>
        <mxCell id="DzyOpSixyx1FY6fsvI3P-2" value="&lt;font data-font-src=&quot;https://fonts.googleapis.com/css?family=Gloria+Hallelujah&quot; style=&quot;font-size: 20px&quot; face=&quot;Gloria Hallelujah&quot;&gt;True / False&lt;br&gt;&lt;/font&gt;" style="text;html=1;strokeColor=none;fillColor=none;align=center;verticalAlign=middle;whiteSpace=wrap;rounded=0;sketch=0;fillStyle=solid;" vertex="1" parent="DzyOpSixyx1FY6fsvI3P-0">
          <mxGeometry y="2" width="140" height="60" as="geometry" />
        </mxCell>
      </root>
    </mxGraphModel>
  </diagram>
  <diagram id="MA_d6dNyEUjAdXw2fiZi" name="aggregation">
    <mxGraphModel dx="2074" dy="1093" grid="1" gridSize="10" guides="1" tooltips="1" connect="1" arrows="1" fold="1" page="1" pageScale="1" pageWidth="827" pageHeight="1169" math="0" shadow="0">
      <root>
        <mxCell id="hoY9NHIZyQ12fraEYpGZ-0" />
        <mxCell id="hoY9NHIZyQ12fraEYpGZ-1" parent="hoY9NHIZyQ12fraEYpGZ-0" />
        <mxCell id="ziuEfhBkUbd69g4CH1wL-3" style="edgeStyle=orthogonalEdgeStyle;curved=1;sketch=1;orthogonalLoop=1;jettySize=auto;html=1;fontFamily=Gloria Hallelujah;fontSource=https%3A%2F%2Ffonts.googleapis.com%2Fcss%3Ffamily%3DGloria%2BHallelujah;fontSize=18;dashed=1;endArrow=none;endFill=0;fillOpacity=0;" parent="hoY9NHIZyQ12fraEYpGZ-1" source="yys4LUhOROxOR2bodz8r-1" target="ziuEfhBkUbd69g4CH1wL-0" edge="1">
          <mxGeometry relative="1" as="geometry">
            <Array as="points">
              <mxPoint x="224" y="490" />
              <mxPoint x="399" y="490" />
            </Array>
          </mxGeometry>
        </mxCell>
        <mxCell id="RCeZU6OJhTQe1LmQV_7o-1" style="edgeStyle=orthogonalEdgeStyle;curved=1;sketch=1;orthogonalLoop=1;jettySize=auto;html=1;entryX=0.5;entryY=0;entryDx=0;entryDy=0;fontFamily=Gloria Hallelujah;fontSource=https%3A%2F%2Ffonts.googleapis.com%2Fcss%3Ffamily%3DGloria%2BHallelujah;fontSize=18;endArrow=none;endFill=0;fillOpacity=0;" parent="hoY9NHIZyQ12fraEYpGZ-1" target="RCeZU6OJhTQe1LmQV_7o-0" edge="1">
          <mxGeometry relative="1" as="geometry">
            <mxPoint x="123" y="430" as="sourcePoint" />
            <Array as="points">
              <mxPoint x="123" y="480" />
              <mxPoint x="288" y="480" />
            </Array>
          </mxGeometry>
        </mxCell>
        <mxCell id="ziuEfhBkUbd69g4CH1wL-4" style="edgeStyle=orthogonalEdgeStyle;curved=1;sketch=1;orthogonalLoop=1;jettySize=auto;html=1;fontFamily=Gloria Hallelujah;fontSource=https%3A%2F%2Ffonts.googleapis.com%2Fcss%3Ffamily%3DGloria%2BHallelujah;fontSize=18;dashed=1;fillOpacity=0;" parent="hoY9NHIZyQ12fraEYpGZ-1" source="mYxpTO9hyJRtcuwIzyUi-3" target="ziuEfhBkUbd69g4CH1wL-0" edge="1">
          <mxGeometry relative="1" as="geometry">
            <Array as="points">
              <mxPoint x="440" y="390" />
              <mxPoint x="400" y="390" />
            </Array>
          </mxGeometry>
        </mxCell>
        <mxCell id="ziuEfhBkUbd69g4CH1wL-5" style="edgeStyle=orthogonalEdgeStyle;curved=1;sketch=1;orthogonalLoop=1;jettySize=auto;html=1;fontFamily=Gloria Hallelujah;fontSource=https%3A%2F%2Ffonts.googleapis.com%2Fcss%3Ffamily%3DGloria%2BHallelujah;fontSize=18;dashed=1;endArrow=none;endFill=0;fillOpacity=0;" parent="hoY9NHIZyQ12fraEYpGZ-1" source="mYxpTO9hyJRtcuwIzyUi-10" target="ziuEfhBkUbd69g4CH1wL-0" edge="1">
          <mxGeometry relative="1" as="geometry">
            <Array as="points">
              <mxPoint x="676" y="490" />
              <mxPoint x="399" y="490" />
            </Array>
          </mxGeometry>
        </mxCell>
        <mxCell id="RCeZU6OJhTQe1LmQV_7o-0" value="&lt;font data-font-src=&quot;https://fonts.googleapis.com/css?family=Gloria+Hallelujah&quot; style=&quot;font-size: 18px&quot; face=&quot;Gloria Hallelujah&quot;&gt;Signature&lt;/font&gt;" style="shape=document;whiteSpace=wrap;html=1;boundedLbl=1;shadow=0;sketch=1;fillStyle=cross-hatch;strokeColor=default;strokeWidth=1;fillColor=#000000;" parent="hoY9NHIZyQ12fraEYpGZ-1" vertex="1">
          <mxGeometry x="243" y="530" width="90" height="42" as="geometry" />
        </mxCell>
        <mxCell id="ziuEfhBkUbd69g4CH1wL-0" value="" style="sketch=1;pointerEvents=1;shadow=0;dashed=0;html=1;strokeColor=default;fillColor=#000000;aspect=fixed;labelPosition=center;verticalLabelPosition=bottom;verticalAlign=top;align=center;outlineConnect=0;shape=stencil(pVfbcpswEP0av+5IWl0fO276H9ShNRMHPEAS8/eVLSR0cVuMZ/x0lj06e5W8w/1wrM71jpFqONeHcYffd4x9Vn1T/TxZmFnL0YESNVDloLZ6rx061m3VjhZ6qydnG8a+e6u/mtdxdmzaY903o7N+OQwZgqJXCF925Js1XH+4P3Rta2U0XTvcsB+Z/VfX17/77qN9TQzefK6uhxYGb37vPq+hXpwGKglQdLKmOUYFhjskPztlOnz0jorOXIqCFs7zwmZMU6BsxrDEJlocOs2uSoH/aHbUGgxuUharYHfU4p1seF9CQIpUGiUGTCYuxh5UxzXwTBwaoDwTF2GLuEgIuyP46czFQlip9x+Ji+rHyiLjo8126ob6v1+lzW1TAaiT5kYhAdWWTMRkPhOMKFAmTQUjEhhNU4FSANFpMlAxwKyHUHGgYo26U9PGgRIR6jstVFw/TkU1A8UTKm7ZtdmiCsGk6eecrkx/qUqmTEqCoVtESRBpfILa7SC3iPL7e6HithAbmIwGYVImtWqXZDzCAKY8kgpg29aSJfONHEZf6LBvwuxbjPt9Q6NTs4a/Yvn0WwhX5asUp0IjLeLs5OUb3WJCluK87yKOg5KlOrJqa2ZVIDroWKoJfNulSjjoPFDCFgxLzAcqpCmqIOwqUmmcwhZabhil5Mh5urQCvYoqj1MIkDLbrnbmdRplBPkgmQ1IZEHayx2yYlJpr/tVQ14s/kjGzK954Lrc4ffSos+mMqapjOlBYfYxmr+3kNDQs15ajE1lUFMZ1PNJS3T42CWGaQ8Fja/ooI2GWzXkTUXXkvc1LPg+83jAvcX/8mq2r+3mdHLP+TsEN9fiPX5D3X+KG/AH);direction=north;fillStyle=cross-hatch;" parent="hoY9NHIZyQ12fraEYpGZ-1" vertex="1">
          <mxGeometry x="380" y="520" width="98.04" height="50" as="geometry" />
        </mxCell>
        <mxCell id="ziuEfhBkUbd69g4CH1wL-1" value="&lt;font data-font-src=&quot;https://fonts.googleapis.com/css?family=Gloria+Hallelujah&quot; style=&quot;font-size: 20px&quot; face=&quot;Gloria Hallelujah&quot;&gt;+&lt;br&gt;&lt;/font&gt;" style="text;html=1;strokeColor=none;fillColor=none;align=center;verticalAlign=middle;whiteSpace=wrap;rounded=0;sketch=0;fillStyle=solid;" parent="hoY9NHIZyQ12fraEYpGZ-1" vertex="1">
          <mxGeometry x="338.24" y="512" width="40" height="60" as="geometry" />
        </mxCell>
        <mxCell id="VIAd8IcILrw9Bt2M4wmb-0" value="" style="endArrow=classic;html=1;rounded=0;sketch=1;fontSize=20;exitX=1;exitY=0.5;exitDx=0;exitDy=0;" parent="hoY9NHIZyQ12fraEYpGZ-1" edge="1">
          <mxGeometry width="50" height="50" relative="1" as="geometry">
            <mxPoint x="498.0000000000002" y="546.4999999999999" as="sourcePoint" />
            <mxPoint x="538.0000000000002" y="546.4999999999999" as="targetPoint" />
          </mxGeometry>
        </mxCell>
        <mxCell id="JUYMKPTlGNAcDyukJhbp-0" value="" style="group" parent="hoY9NHIZyQ12fraEYpGZ-1" vertex="1" connectable="0">
          <mxGeometry x="559" y="513" width="140" height="63" as="geometry" />
        </mxCell>
        <mxCell id="VIAd8IcILrw9Bt2M4wmb-2" value="" style="ellipse;whiteSpace=wrap;html=1;shadow=0;sketch=1;fillStyle=solid;fontFamily=Gloria Hallelujah;fontSource=https%3A%2F%2Ffonts.googleapis.com%2Fcss%3Ffamily%3DGloria%2BHallelujah;fontSize=18;strokeColor=default;strokeWidth=1;fillColor=none;" parent="JUYMKPTlGNAcDyukJhbp-0" vertex="1">
          <mxGeometry width="140" height="63" as="geometry" />
        </mxCell>
        <mxCell id="VIAd8IcILrw9Bt2M4wmb-1" value="&lt;font data-font-src=&quot;https://fonts.googleapis.com/css?family=Gloria+Hallelujah&quot; style=&quot;font-size: 20px&quot; face=&quot;Gloria Hallelujah&quot;&gt;True / False&lt;br&gt;&lt;/font&gt;" style="text;html=1;strokeColor=none;fillColor=none;align=center;verticalAlign=middle;whiteSpace=wrap;rounded=0;sketch=0;fillStyle=solid;" parent="JUYMKPTlGNAcDyukJhbp-0" vertex="1">
          <mxGeometry y="2" width="140" height="60" as="geometry" />
        </mxCell>
        <mxCell id="61m-Nbs2BYRo1KxZEugn-0" value="" style="group" parent="hoY9NHIZyQ12fraEYpGZ-1" vertex="1" connectable="0">
          <mxGeometry x="530" y="90" width="190" height="342" as="geometry" />
        </mxCell>
        <mxCell id="mYxpTO9hyJRtcuwIzyUi-8" value="Validator&lt;br&gt;C" style="shape=umlActor;verticalLabelPosition=bottom;verticalAlign=top;html=1;outlineConnect=0;shadow=0;sketch=1;fillStyle=solid;fontFamily=Gloria Hallelujah;fontSource=https%3A%2F%2Ffonts.googleapis.com%2Fcss%3Ffamily%3DGloria%2BHallelujah;fontSize=18;strokeColor=default;strokeWidth=1;fillColor=none;" parent="61m-Nbs2BYRo1KxZEugn-0" vertex="1">
          <mxGeometry x="71.75999999999999" y="-10" width="40" height="70" as="geometry" />
        </mxCell>
        <mxCell id="mYxpTO9hyJRtcuwIzyUi-9" value="" style="sketch=1;pointerEvents=1;shadow=0;dashed=0;html=1;strokeColor=default;fillColor=none;aspect=fixed;labelPosition=center;verticalLabelPosition=bottom;verticalAlign=top;align=center;outlineConnect=0;shape=stencil(pVfbcpswEP0av+5IWl0fO276H9ShNRMHPEAS8/eVLSR0cVuMZ/x0lj06e5W8w/1wrM71jpFqONeHcYffd4x9Vn1T/TxZmFnL0YESNVDloLZ6rx061m3VjhZ6qydnG8a+e6u/mtdxdmzaY903o7N+OQwZgqJXCF925Js1XH+4P3Rta2U0XTvcsB+Z/VfX17/77qN9TQzefK6uhxYGb37vPq+hXpwGKglQdLKmOUYFhjskPztlOnz0jorOXIqCFs7zwmZMU6BsxrDEJlocOs2uSoH/aHbUGgxuUharYHfU4p1seF9CQIpUGiUGTCYuxh5UxzXwTBwaoDwTF2GLuEgIuyP46czFQlip9x+Ji+rHyiLjo8126ob6v1+lzW1TAaiT5kYhAdWWTMRkPhOMKFAmTQUjEhhNU4FSANFpMlAxwKyHUHGgYo26U9PGgRIR6jstVFw/TkU1A8UTKm7ZtdmiCsGk6eecrkx/qUqmTEqCoVtESRBpfILa7SC3iPL7e6HithAbmIwGYVImtWqXZDzCAKY8kgpg29aSJfONHEZf6LBvwuxbjPt9Q6NTs4a/Yvn0WwhX5asUp0IjLeLs5OUb3WJCluK87yKOg5KlOrJqa2ZVIDroWKoJfNulSjjoPFDCFgxLzAcqpCmqIOwqUmmcwhZabhil5Mh5urQCvYoqj1MIkDLbrnbmdRplBPkgmQ1IZEHayx2yYlJpr/tVQ14s/kjGzK954Lrc4ffSos+mMqapjOlBYfYxmr+3kNDQs15ajE1lUFMZ1PNJS3T42CWGaQ8Fja/ooI2GWzXkTUXXkvc1LPg+83jAvcX/8mq2r+3mdHLP+TsEN9fiPX5D3X+KG/AH);direction=north;fillStyle=hachure;" parent="61m-Nbs2BYRo1KxZEugn-0" vertex="1">
          <mxGeometry x="1.759999999999991" y="120" width="88.24" height="45" as="geometry" />
        </mxCell>
        <mxCell id="mYxpTO9hyJRtcuwIzyUi-10" value="" style="sketch=1;pointerEvents=1;shadow=0;dashed=0;html=1;strokeColor=default;fillColor=#000000;aspect=fixed;labelPosition=center;verticalLabelPosition=bottom;verticalAlign=top;align=center;outlineConnect=0;shape=stencil(pVfbcpswEP0av+5IWl0fO276H9ShNRMHPEAS8/eVLSR0cVuMZ/x0lj06e5W8w/1wrM71jpFqONeHcYffd4x9Vn1T/TxZmFnL0YESNVDloLZ6rx061m3VjhZ6qydnG8a+e6u/mtdxdmzaY903o7N+OQwZgqJXCF925Js1XH+4P3Rta2U0XTvcsB+Z/VfX17/77qN9TQzefK6uhxYGb37vPq+hXpwGKglQdLKmOUYFhjskPztlOnz0jorOXIqCFs7zwmZMU6BsxrDEJlocOs2uSoH/aHbUGgxuUharYHfU4p1seF9CQIpUGiUGTCYuxh5UxzXwTBwaoDwTF2GLuEgIuyP46czFQlip9x+Ji+rHyiLjo8126ob6v1+lzW1TAaiT5kYhAdWWTMRkPhOMKFAmTQUjEhhNU4FSANFpMlAxwKyHUHGgYo26U9PGgRIR6jstVFw/TkU1A8UTKm7ZtdmiCsGk6eecrkx/qUqmTEqCoVtESRBpfILa7SC3iPL7e6HithAbmIwGYVImtWqXZDzCAKY8kgpg29aSJfONHEZf6LBvwuxbjPt9Q6NTs4a/Yvn0WwhX5asUp0IjLeLs5OUb3WJCluK87yKOg5KlOrJqa2ZVIDroWKoJfNulSjjoPFDCFgxLzAcqpCmqIOwqUmmcwhZabhil5Mh5urQCvYoqj1MIkDLbrnbmdRplBPkgmQ1IZEHayx2yYlJpr/tVQ14s/kjGzK954Lrc4ffSos+mMqapjOlBYfYxmr+3kNDQs15ajE1lUFMZ1PNJS3T42CWGaQ8Fja/ooI2GWzXkTUXXkvc1LPg+83jAvcX/8mq2r+3mdHLP+TsEN9fiPX5D3X+KG/AH);direction=north;fillStyle=hachure;" parent="61m-Nbs2BYRo1KxZEugn-0" vertex="1">
          <mxGeometry x="101.75999999999999" y="120" width="88.24" height="45" as="geometry" />
        </mxCell>
        <mxCell id="mYxpTO9hyJRtcuwIzyUi-11" value="" style="shape=document;whiteSpace=wrap;html=1;boundedLbl=1;shadow=0;sketch=1;fillStyle=auto;strokeColor=default;strokeWidth=1;fillColor=none;" parent="61m-Nbs2BYRo1KxZEugn-0" vertex="1">
          <mxGeometry x="0.8799999999999955" y="200" width="90" height="40" as="geometry" />
        </mxCell>
        <mxCell id="mYxpTO9hyJRtcuwIzyUi-12" value="" style="endArrow=classic;html=1;rounded=0;sketch=1;fontSize=20;" parent="61m-Nbs2BYRo1KxZEugn-0" edge="1">
          <mxGeometry width="50" height="50" relative="1" as="geometry">
            <mxPoint x="41.75999999999999" y="260" as="sourcePoint" />
            <mxPoint x="41.75999999999999" y="290" as="targetPoint" />
          </mxGeometry>
        </mxCell>
        <mxCell id="mYxpTO9hyJRtcuwIzyUi-13" value="&lt;font data-font-src=&quot;https://fonts.googleapis.com/css?family=Gloria+Hallelujah&quot; style=&quot;font-size: 18px&quot; face=&quot;Gloria Hallelujah&quot;&gt;Signature&lt;/font&gt;" style="shape=document;whiteSpace=wrap;html=1;boundedLbl=1;shadow=0;sketch=1;fillStyle=hachure;strokeColor=default;strokeWidth=1;fillColor=#000000;" parent="61m-Nbs2BYRo1KxZEugn-0" vertex="1">
          <mxGeometry y="300" width="90" height="42" as="geometry" />
        </mxCell>
        <mxCell id="mYxpTO9hyJRtcuwIzyUi-14" value="&lt;font data-font-src=&quot;https://fonts.googleapis.com/css?family=Gloria+Hallelujah&quot; style=&quot;font-size: 20px&quot; face=&quot;Gloria Hallelujah&quot;&gt;+&lt;br&gt;&lt;/font&gt;" style="text;html=1;strokeColor=none;fillColor=none;align=center;verticalAlign=middle;whiteSpace=wrap;rounded=0;sketch=0;fillStyle=solid;" parent="61m-Nbs2BYRo1KxZEugn-0" vertex="1">
          <mxGeometry x="21.75999999999999" y="146" width="40" height="60" as="geometry" />
        </mxCell>
        <mxCell id="61m-Nbs2BYRo1KxZEugn-1" value="" style="group" parent="hoY9NHIZyQ12fraEYpGZ-1" vertex="1" connectable="0">
          <mxGeometry x="304" y="90" width="190" height="342" as="geometry" />
        </mxCell>
        <mxCell id="mYxpTO9hyJRtcuwIzyUi-1" value="Validator&lt;br&gt;B" style="shape=umlActor;verticalLabelPosition=bottom;verticalAlign=top;html=1;outlineConnect=0;shadow=0;sketch=1;fillStyle=solid;fontFamily=Gloria Hallelujah;fontSource=https%3A%2F%2Ffonts.googleapis.com%2Fcss%3Ffamily%3DGloria%2BHallelujah;fontSize=18;strokeColor=default;strokeWidth=1;fillColor=none;" parent="61m-Nbs2BYRo1KxZEugn-1" vertex="1">
          <mxGeometry x="71.75999999999999" y="-10" width="40" height="70" as="geometry" />
        </mxCell>
        <mxCell id="mYxpTO9hyJRtcuwIzyUi-2" value="" style="sketch=1;pointerEvents=1;shadow=0;dashed=0;html=1;strokeColor=default;fillColor=none;aspect=fixed;labelPosition=center;verticalLabelPosition=bottom;verticalAlign=top;align=center;outlineConnect=0;shape=stencil(pVfbcpswEP0av+5IWl0fO276H9ShNRMHPEAS8/eVLSR0cVuMZ/x0lj06e5W8w/1wrM71jpFqONeHcYffd4x9Vn1T/TxZmFnL0YESNVDloLZ6rx061m3VjhZ6qydnG8a+e6u/mtdxdmzaY903o7N+OQwZgqJXCF925Js1XH+4P3Rta2U0XTvcsB+Z/VfX17/77qN9TQzefK6uhxYGb37vPq+hXpwGKglQdLKmOUYFhjskPztlOnz0jorOXIqCFs7zwmZMU6BsxrDEJlocOs2uSoH/aHbUGgxuUharYHfU4p1seF9CQIpUGiUGTCYuxh5UxzXwTBwaoDwTF2GLuEgIuyP46czFQlip9x+Ji+rHyiLjo8126ob6v1+lzW1TAaiT5kYhAdWWTMRkPhOMKFAmTQUjEhhNU4FSANFpMlAxwKyHUHGgYo26U9PGgRIR6jstVFw/TkU1A8UTKm7ZtdmiCsGk6eecrkx/qUqmTEqCoVtESRBpfILa7SC3iPL7e6HithAbmIwGYVImtWqXZDzCAKY8kgpg29aSJfONHEZf6LBvwuxbjPt9Q6NTs4a/Yvn0WwhX5asUp0IjLeLs5OUb3WJCluK87yKOg5KlOrJqa2ZVIDroWKoJfNulSjjoPFDCFgxLzAcqpCmqIOwqUmmcwhZabhil5Mh5urQCvYoqj1MIkDLbrnbmdRplBPkgmQ1IZEHayx2yYlJpr/tVQ14s/kjGzK954Lrc4ffSos+mMqapjOlBYfYxmr+3kNDQs15ajE1lUFMZ1PNJS3T42CWGaQ8Fja/ooI2GWzXkTUXXkvc1LPg+83jAvcX/8mq2r+3mdHLP+TsEN9fiPX5D3X+KG/AH);direction=north;fillStyle=hachure;" parent="61m-Nbs2BYRo1KxZEugn-1" vertex="1">
          <mxGeometry x="1.759999999999991" y="120" width="88.24" height="45" as="geometry" />
        </mxCell>
        <mxCell id="mYxpTO9hyJRtcuwIzyUi-3" value="" style="sketch=1;pointerEvents=1;shadow=0;dashed=0;html=1;strokeColor=default;fillColor=#000000;aspect=fixed;labelPosition=center;verticalLabelPosition=bottom;verticalAlign=top;align=center;outlineConnect=0;shape=stencil(pVfbcpswEP0av+5IWl0fO276H9ShNRMHPEAS8/eVLSR0cVuMZ/x0lj06e5W8w/1wrM71jpFqONeHcYffd4x9Vn1T/TxZmFnL0YESNVDloLZ6rx061m3VjhZ6qydnG8a+e6u/mtdxdmzaY903o7N+OQwZgqJXCF925Js1XH+4P3Rta2U0XTvcsB+Z/VfX17/77qN9TQzefK6uhxYGb37vPq+hXpwGKglQdLKmOUYFhjskPztlOnz0jorOXIqCFs7zwmZMU6BsxrDEJlocOs2uSoH/aHbUGgxuUharYHfU4p1seF9CQIpUGiUGTCYuxh5UxzXwTBwaoDwTF2GLuEgIuyP46czFQlip9x+Ji+rHyiLjo8126ob6v1+lzW1TAaiT5kYhAdWWTMRkPhOMKFAmTQUjEhhNU4FSANFpMlAxwKyHUHGgYo26U9PGgRIR6jstVFw/TkU1A8UTKm7ZtdmiCsGk6eecrkx/qUqmTEqCoVtESRBpfILa7SC3iPL7e6HithAbmIwGYVImtWqXZDzCAKY8kgpg29aSJfONHEZf6LBvwuxbjPt9Q6NTs4a/Yvn0WwhX5asUp0IjLeLs5OUb3WJCluK87yKOg5KlOrJqa2ZVIDroWKoJfNulSjjoPFDCFgxLzAcqpCmqIOwqUmmcwhZabhil5Mh5urQCvYoqj1MIkDLbrnbmdRplBPkgmQ1IZEHayx2yYlJpr/tVQ14s/kjGzK954Lrc4ffSos+mMqapjOlBYfYxmr+3kNDQs15ajE1lUFMZ1PNJS3T42CWGaQ8Fja/ooI2GWzXkTUXXkvc1LPg+83jAvcX/8mq2r+3mdHLP+TsEN9fiPX5D3X+KG/AH);direction=north;fillStyle=hachure;" parent="61m-Nbs2BYRo1KxZEugn-1" vertex="1">
          <mxGeometry x="101.75999999999999" y="120" width="88.24" height="45" as="geometry" />
        </mxCell>
        <mxCell id="mYxpTO9hyJRtcuwIzyUi-4" value="" style="shape=document;whiteSpace=wrap;html=1;boundedLbl=1;shadow=0;sketch=1;fillStyle=auto;strokeColor=default;strokeWidth=1;fillColor=none;" parent="61m-Nbs2BYRo1KxZEugn-1" vertex="1">
          <mxGeometry x="0.8799999999999955" y="200" width="90" height="40" as="geometry" />
        </mxCell>
        <mxCell id="mYxpTO9hyJRtcuwIzyUi-5" value="" style="endArrow=classic;html=1;rounded=0;sketch=1;fontSize=20;" parent="61m-Nbs2BYRo1KxZEugn-1" edge="1">
          <mxGeometry width="50" height="50" relative="1" as="geometry">
            <mxPoint x="41.75999999999999" y="260" as="sourcePoint" />
            <mxPoint x="41.75999999999999" y="290" as="targetPoint" />
          </mxGeometry>
        </mxCell>
        <mxCell id="mYxpTO9hyJRtcuwIzyUi-6" value="&lt;font data-font-src=&quot;https://fonts.googleapis.com/css?family=Gloria+Hallelujah&quot; style=&quot;font-size: 18px&quot; face=&quot;Gloria Hallelujah&quot;&gt;Signature&lt;/font&gt;" style="shape=document;whiteSpace=wrap;html=1;boundedLbl=1;shadow=0;sketch=1;fillStyle=hachure;strokeColor=default;strokeWidth=1;fillColor=#000000;" parent="61m-Nbs2BYRo1KxZEugn-1" vertex="1">
          <mxGeometry y="300" width="90" height="42" as="geometry" />
        </mxCell>
        <mxCell id="mYxpTO9hyJRtcuwIzyUi-7" value="&lt;font data-font-src=&quot;https://fonts.googleapis.com/css?family=Gloria+Hallelujah&quot; style=&quot;font-size: 20px&quot; face=&quot;Gloria Hallelujah&quot;&gt;+&lt;br&gt;&lt;/font&gt;" style="text;html=1;strokeColor=none;fillColor=none;align=center;verticalAlign=middle;whiteSpace=wrap;rounded=0;sketch=0;fillStyle=solid;" parent="61m-Nbs2BYRo1KxZEugn-1" vertex="1">
          <mxGeometry x="21.75999999999999" y="146" width="40" height="60" as="geometry" />
        </mxCell>
        <mxCell id="61m-Nbs2BYRo1KxZEugn-2" value="" style="group" parent="hoY9NHIZyQ12fraEYpGZ-1" vertex="1" connectable="0">
          <mxGeometry x="78.24000000000001" y="90" width="190" height="342" as="geometry" />
        </mxCell>
        <mxCell id="hoY9NHIZyQ12fraEYpGZ-2" value="Validator&lt;br&gt;A" style="shape=umlActor;verticalLabelPosition=bottom;verticalAlign=top;html=1;outlineConnect=0;shadow=0;sketch=1;fillStyle=solid;fontFamily=Gloria Hallelujah;fontSource=https%3A%2F%2Ffonts.googleapis.com%2Fcss%3Ffamily%3DGloria%2BHallelujah;fontSize=18;strokeColor=default;strokeWidth=1;fillColor=none;" parent="61m-Nbs2BYRo1KxZEugn-2" vertex="1">
          <mxGeometry x="71.75999999999999" y="-10" width="40" height="70" as="geometry" />
        </mxCell>
        <mxCell id="yys4LUhOROxOR2bodz8r-0" value="" style="sketch=1;pointerEvents=1;shadow=0;dashed=0;html=1;strokeColor=default;fillColor=none;aspect=fixed;labelPosition=center;verticalLabelPosition=bottom;verticalAlign=top;align=center;outlineConnect=0;shape=stencil(pVfbcpswEP0av+5IWl0fO276H9ShNRMHPEAS8/eVLSR0cVuMZ/x0lj06e5W8w/1wrM71jpFqONeHcYffd4x9Vn1T/TxZmFnL0YESNVDloLZ6rx061m3VjhZ6qydnG8a+e6u/mtdxdmzaY903o7N+OQwZgqJXCF925Js1XH+4P3Rta2U0XTvcsB+Z/VfX17/77qN9TQzefK6uhxYGb37vPq+hXpwGKglQdLKmOUYFhjskPztlOnz0jorOXIqCFs7zwmZMU6BsxrDEJlocOs2uSoH/aHbUGgxuUharYHfU4p1seF9CQIpUGiUGTCYuxh5UxzXwTBwaoDwTF2GLuEgIuyP46czFQlip9x+Ji+rHyiLjo8126ob6v1+lzW1TAaiT5kYhAdWWTMRkPhOMKFAmTQUjEhhNU4FSANFpMlAxwKyHUHGgYo26U9PGgRIR6jstVFw/TkU1A8UTKm7ZtdmiCsGk6eecrkx/qUqmTEqCoVtESRBpfILa7SC3iPL7e6HithAbmIwGYVImtWqXZDzCAKY8kgpg29aSJfONHEZf6LBvwuxbjPt9Q6NTs4a/Yvn0WwhX5asUp0IjLeLs5OUb3WJCluK87yKOg5KlOrJqa2ZVIDroWKoJfNulSjjoPFDCFgxLzAcqpCmqIOwqUmmcwhZabhil5Mh5urQCvYoqj1MIkDLbrnbmdRplBPkgmQ1IZEHayx2yYlJpr/tVQ14s/kjGzK954Lrc4ffSos+mMqapjOlBYfYxmr+3kNDQs15ajE1lUFMZ1PNJS3T42CWGaQ8Fja/ooI2GWzXkTUXXkvc1LPg+83jAvcX/8mq2r+3mdHLP+TsEN9fiPX5D3X+KG/AH);direction=north;fillStyle=hachure;" parent="61m-Nbs2BYRo1KxZEugn-2" vertex="1">
          <mxGeometry x="1.759999999999991" y="120" width="88.24" height="45" as="geometry" />
        </mxCell>
        <mxCell id="yys4LUhOROxOR2bodz8r-1" value="" style="sketch=1;pointerEvents=1;shadow=0;dashed=0;html=1;strokeColor=default;fillColor=#000000;aspect=fixed;labelPosition=center;verticalLabelPosition=bottom;verticalAlign=top;align=center;outlineConnect=0;shape=stencil(pVfbcpswEP0av+5IWl0fO276H9ShNRMHPEAS8/eVLSR0cVuMZ/x0lj06e5W8w/1wrM71jpFqONeHcYffd4x9Vn1T/TxZmFnL0YESNVDloLZ6rx061m3VjhZ6qydnG8a+e6u/mtdxdmzaY903o7N+OQwZgqJXCF925Js1XH+4P3Rta2U0XTvcsB+Z/VfX17/77qN9TQzefK6uhxYGb37vPq+hXpwGKglQdLKmOUYFhjskPztlOnz0jorOXIqCFs7zwmZMU6BsxrDEJlocOs2uSoH/aHbUGgxuUharYHfU4p1seF9CQIpUGiUGTCYuxh5UxzXwTBwaoDwTF2GLuEgIuyP46czFQlip9x+Ji+rHyiLjo8126ob6v1+lzW1TAaiT5kYhAdWWTMRkPhOMKFAmTQUjEhhNU4FSANFpMlAxwKyHUHGgYo26U9PGgRIR6jstVFw/TkU1A8UTKm7ZtdmiCsGk6eecrkx/qUqmTEqCoVtESRBpfILa7SC3iPL7e6HithAbmIwGYVImtWqXZDzCAKY8kgpg29aSJfONHEZf6LBvwuxbjPt9Q6NTs4a/Yvn0WwhX5asUp0IjLeLs5OUb3WJCluK87yKOg5KlOrJqa2ZVIDroWKoJfNulSjjoPFDCFgxLzAcqpCmqIOwqUmmcwhZabhil5Mh5urQCvYoqj1MIkDLbrnbmdRplBPkgmQ1IZEHayx2yYlJpr/tVQ14s/kjGzK954Lrc4ffSos+mMqapjOlBYfYxmr+3kNDQs15ajE1lUFMZ1PNJS3T42CWGaQ8Fja/ooI2GWzXkTUXXkvc1LPg+83jAvcX/8mq2r+3mdHLP+TsEN9fiPX5D3X+KG/AH);direction=north;fillStyle=hachure;" parent="61m-Nbs2BYRo1KxZEugn-2" vertex="1">
          <mxGeometry x="101.75999999999999" y="120" width="88.24" height="45" as="geometry" />
        </mxCell>
        <mxCell id="F1aoNFHvlg5vLMlAlP-S-0" value="" style="shape=document;whiteSpace=wrap;html=1;boundedLbl=1;shadow=0;sketch=1;fillStyle=auto;strokeColor=default;strokeWidth=1;fillColor=none;" parent="61m-Nbs2BYRo1KxZEugn-2" vertex="1">
          <mxGeometry x="0.8799999999999955" y="200" width="90" height="40" as="geometry" />
        </mxCell>
        <mxCell id="NlEXQAN8hFtHMLeczZiQ-0" value="" style="endArrow=classic;html=1;rounded=0;sketch=1;fontSize=20;" parent="61m-Nbs2BYRo1KxZEugn-2" edge="1">
          <mxGeometry width="50" height="50" relative="1" as="geometry">
            <mxPoint x="41.75999999999999" y="260" as="sourcePoint" />
            <mxPoint x="41.75999999999999" y="290" as="targetPoint" />
          </mxGeometry>
        </mxCell>
        <mxCell id="Z5ixxsLs-9Mvm1N2Ehkt-0" value="&lt;font data-font-src=&quot;https://fonts.googleapis.com/css?family=Gloria+Hallelujah&quot; style=&quot;font-size: 18px&quot; face=&quot;Gloria Hallelujah&quot;&gt;Signature&lt;/font&gt;" style="shape=document;whiteSpace=wrap;html=1;boundedLbl=1;shadow=0;sketch=1;fillStyle=hachure;strokeColor=default;strokeWidth=1;fillColor=#000000;" parent="61m-Nbs2BYRo1KxZEugn-2" vertex="1">
          <mxGeometry y="300" width="90" height="42" as="geometry" />
        </mxCell>
        <mxCell id="mYxpTO9hyJRtcuwIzyUi-0" value="&lt;font data-font-src=&quot;https://fonts.googleapis.com/css?family=Gloria+Hallelujah&quot; style=&quot;font-size: 20px&quot; face=&quot;Gloria Hallelujah&quot;&gt;+&lt;br&gt;&lt;/font&gt;" style="text;html=1;strokeColor=none;fillColor=none;align=center;verticalAlign=middle;whiteSpace=wrap;rounded=0;sketch=0;fillStyle=solid;" parent="61m-Nbs2BYRo1KxZEugn-2" vertex="1">
          <mxGeometry x="21.75999999999999" y="146" width="40" height="60" as="geometry" />
        </mxCell>
        <mxCell id="CwsH7c2HmVUYPkSpSiw9-0" value="" style="shape=document;whiteSpace=wrap;html=1;boundedLbl=1;shadow=0;sketch=1;fillStyle=auto;strokeColor=default;strokeWidth=1;fillColor=none;" parent="hoY9NHIZyQ12fraEYpGZ-1" vertex="1">
          <mxGeometry x="100.00000000000003" y="531" width="90" height="40" as="geometry" />
        </mxCell>
        <mxCell id="CwsH7c2HmVUYPkSpSiw9-2" style="edgeStyle=orthogonalEdgeStyle;curved=1;orthogonalLoop=1;jettySize=auto;html=1;entryX=0;entryY=0.5;entryDx=0;entryDy=0;exitX=0;exitY=0.5;exitDx=0;exitDy=0;backgroundOutline=0;fillOpacity=0;" parent="hoY9NHIZyQ12fraEYpGZ-1" source="F1aoNFHvlg5vLMlAlP-S-0" target="CwsH7c2HmVUYPkSpSiw9-0" edge="1">
          <mxGeometry relative="1" as="geometry" />
        </mxCell>
        <mxCell id="CwsH7c2HmVUYPkSpSiw9-3" style="edgeStyle=orthogonalEdgeStyle;curved=1;orthogonalLoop=1;jettySize=auto;html=1;entryX=0.5;entryY=0;entryDx=0;entryDy=0;fillOpacity=0;" parent="hoY9NHIZyQ12fraEYpGZ-1" source="mYxpTO9hyJRtcuwIzyUi-6" target="RCeZU6OJhTQe1LmQV_7o-0" edge="1">
          <mxGeometry relative="1" as="geometry">
            <Array as="points">
              <mxPoint x="350" y="470" />
              <mxPoint x="288" y="470" />
            </Array>
          </mxGeometry>
        </mxCell>
        <mxCell id="CwsH7c2HmVUYPkSpSiw9-4" style="edgeStyle=orthogonalEdgeStyle;curved=1;orthogonalLoop=1;jettySize=auto;html=1;entryX=0.5;entryY=0;entryDx=0;entryDy=0;endArrow=none;endFill=0;fillOpacity=0;" parent="hoY9NHIZyQ12fraEYpGZ-1" source="mYxpTO9hyJRtcuwIzyUi-13" target="RCeZU6OJhTQe1LmQV_7o-0" edge="1">
          <mxGeometry relative="1" as="geometry">
            <Array as="points">
              <mxPoint x="575" y="470" />
              <mxPoint x="288" y="470" />
            </Array>
          </mxGeometry>
        </mxCell>
        <mxCell id="CwsH7c2HmVUYPkSpSiw9-5" value="&lt;font data-font-src=&quot;https://fonts.googleapis.com/css?family=Gloria+Hallelujah&quot; style=&quot;font-size: 20px&quot; face=&quot;Gloria Hallelujah&quot;&gt;+&lt;br&gt;&lt;/font&gt;" style="text;html=1;strokeColor=none;fillColor=none;align=center;verticalAlign=middle;whiteSpace=wrap;rounded=0;sketch=0;fillStyle=solid;" parent="hoY9NHIZyQ12fraEYpGZ-1" vertex="1">
          <mxGeometry x="197" y="515" width="40" height="60" as="geometry" />
        </mxCell>
      </root>
    </mxGraphModel>
  </diagram>
</mxfile>
